<svg width="704" height="564" viewBox="0 0 704 564" fill="none" xmlns="http://www.w3.org/2000/svg">
<path d="M0.500461 449.566L0.500442 413.422L1.14959 563.501L441.184 563.501L441.184 499.158L524.095 499.158L524.095 563.501L660.894 563.501L660.894 435.95L703.5 435.95L703.5 118.987L588.997 118.987L588.997 0.501002L238.495 1.16243L238.495 201.15L37.6116 202.914L0.499991 202.914L0.500461 449.566Z" stroke="#242424"/>
<path d="M649 141.759C670.417 141.759 687.816 158.942 688.171 180.274H609.829C610.184 158.942 627.583 141.759 649 141.759Z" stroke="#242424" stroke-width="1.32812"/>
<rect x="607.164" y="186.915" width="83.6719" height="9.29688" stroke="#242424" stroke-width="1.32812"/>
<rect x="647.508" y="141.759" width="3.98437" height="3.98438" transform="rotate(-90 647.508 141.759)" stroke="#242424" stroke-width="1.32812"/>
</svg>
