<svg width="345" height="276" viewBox="0 0 345 276" fill="none" xmlns="http://www.w3.org/2000/svg">
    <path d="M0.500226 219.849L0.500216 202.194L0.817863 275.501L180.141 275.501L180.141 244.072L220.712 244.072L220.712 275.501L285.651 275.501L285.651 213.198L344.5 213.198L344.5 58.3758L256.47 58.3758L256.47 0.500959L88.4692 0.824038L88.4689 98.509L18.6599 99.3705L0.499996 99.3705L0.500226 219.849Z" stroke="#242424"/>
    <path d="M316.705 68.8408C326.723 68.8408 334.876 76.8289 335.141 86.7832H298.27C298.535 76.829 306.687 68.841 316.705 68.8408Z" stroke="#242424"/>
    <rect x="297" y="90.3091" width="39.4109" height="4.05137" stroke="#242424"/>
    <rect x="315.737" y="68.4723" width="1.52568" height="1.52568" transform="rotate(-90 315.737 68.4723)" stroke="#242424"/>
</svg>
