<svg width="142" height="142" viewBox="0 0 142 142" fill="none" xmlns="http://www.w3.org/2000/svg">
<path d="M70.9912 43.6562C86.0924 43.6562 98.3349 55.898 98.335 70.999C98.335 86.1001 86.0924 98.3418 70.9912 98.3418C55.8902 98.3416 43.6484 86.1 43.6484 70.999C43.6485 55.8981 55.8902 43.6564 70.9912 43.6562Z" stroke="#242424"/>
<path d="M71 103.021C71 130.436 71 140.431 71 142.002" stroke="#242424"/>
<path d="M103.02 71C130.434 71 140.429 71 142 71" stroke="#242424"/>
<path d="M71 0C71 27.4145 71 37.4094 71 38.9801" stroke="#242424"/>
<path d="M0 71C27.4148 71 37.4098 71 38.9804 71" stroke="#242424"/>
<path d="M93.7188 48.293C113.054 28.9574 120.104 21.908 121.212 20.8002" stroke="#242424"/>
<path d="M20.8008 121.209C40.1365 101.873 47.186 94.824 48.2938 93.7162" stroke="#242424"/>
<path d="M48.3047 48.293C28.969 28.9574 21.9195 21.908 20.8117 20.8002" stroke="#242424"/>
<path d="M121.223 121.209C101.887 101.873 94.8374 94.824 93.7297 93.7162" stroke="#242424"/>
</svg>
