<svg width="256" height="57" viewBox="0 0 256 57" fill="none" xmlns="http://www.w3.org/2000/svg">
<path d="M244.06 23.8806L243.236 23.0569L253.745 12.5483H91.0651V11.3423H253.755L243.236 0.823728L244.06 0L256 11.9403L244.06 23.8806Z" fill="#F9F9F9"/>
<path d="M11.9403 23.8806L12.764 23.0569L2.25546 12.5483H91.0333V11.3423H2.24549L12.764 0.823728L11.9403 0L0 11.9403L11.9403 23.8806Z" fill="#F9F9F9"/>
<circle opacity="0.7" cx="128" cy="12" r="7" fill="#F9F9F9"/>
<circle opacity="0.7" cx="128" cy="12" r="10" fill="#F9F9F9"/>
<circle opacity="0.7" cx="128" cy="12" r="4" fill="#F9F9F9"/>
<path d="M126.926 48.3115L126.779 48.165C126.465 47.8507 126.192 47.5757 125.977 47.2529L125.949 47.2119L125.943 47.2061C125.942 47.2042 125.941 47.2022 125.939 47.2002C125.92 47.1711 125.891 47.1274 125.853 47.0703C125.776 46.9559 125.665 46.7886 125.524 46.5771C125.243 46.1543 124.845 45.5536 124.368 44.834C123.416 43.3949 122.151 41.4816 120.889 39.5703C119.626 37.6589 118.365 35.749 117.42 34.3174C116.947 33.6016 116.554 33.0053 116.278 32.5879C116.141 32.3792 116.032 32.2153 115.958 32.1035C115.921 32.0479 115.893 32.0054 115.874 31.9766C115.864 31.9621 115.857 31.9507 115.853 31.9434C115.85 31.9398 115.848 31.9374 115.847 31.9355L115.846 31.9326L115.838 31.9209L115.725 31.7354C115.217 30.7764 115.589 29.3681 116.751 28.6104C117.989 27.8029 119.516 28.0617 120.2 29.084V29.085L123.772 34.5029V34.5039C124.009 34.8975 124.455 34.9746 124.779 34.8818C125.125 34.7828 125.442 34.4686 125.442 33.999V13.1162C125.442 11.5608 126.785 10.3199 128.39 10.5205C129.67 10.7275 130.621 11.922 130.621 13.2402V26.1865L131.475 25.332C131.951 24.8553 132.571 24.5518 133.284 24.5518C134.483 24.5519 135.463 25.3332 135.771 26.3584L136.041 27.2588L136.637 26.5312C137.1 25.9645 137.825 25.6025 138.598 25.6025C139.855 25.6027 140.881 26.438 141.137 27.5615L141.338 28.4443L141.979 27.8037C142.565 27.2177 143.402 26.8585 144.273 26.957C145.557 27.167 146.5 28.3026 146.5 29.6748V41.9082C146.5 44.7138 145.216 47.174 143.216 48.8799L143.04 49.0293V54.3271C143.04 55.2865 142.275 56.0508 141.315 56.0508H128.65C127.691 56.0508 126.926 55.2865 126.926 54.3271V48.3115Z" fill="#F9F9F9" stroke="black"/>
</svg>
