<svg width="708" height="620" viewBox="0 0 708 620" fill="none" xmlns="http://www.w3.org/2000/svg">
<g clip-path="url(#clip0_1875_11677)">
<path d="M150.205 132.109V262.742H165.589V132.109H150.205Z" stroke="#1A1A1A" stroke-width="2" stroke-linecap="round" stroke-linejoin="round"/>
<path d="M265.058 307.426H302.568V245.243H265.058V307.426Z" stroke="#1A1A1A" stroke-width="2" stroke-linecap="round" stroke-linejoin="round"/>
<path d="M296.265 303.492H273.867C273.056 303.492 272.253 303.333 271.503 303.022C270.754 302.712 270.073 302.257 269.499 301.684C268.926 301.111 268.471 300.43 268.16 299.681C267.85 298.932 267.69 298.129 267.69 297.318V252.845C267.69 251.87 268.077 250.935 268.767 250.245C269.457 249.556 270.392 249.169 271.368 249.169H296.265C297.241 249.169 298.176 249.556 298.866 250.245C299.556 250.935 299.943 251.87 299.943 252.845V299.819C299.943 300.794 299.555 301.728 298.865 302.417C298.175 303.105 297.24 303.492 296.265 303.492Z" stroke="#1A1A1A" stroke-width="2" stroke-linecap="round" stroke-linejoin="round"/>
<path d="M273.993 300.996H294.171C296.203 300.996 297.85 299.35 297.85 297.32V276.737C297.85 274.707 296.203 273.061 294.171 273.061H273.993C271.961 273.061 270.315 274.707 270.315 276.737V297.32C270.315 299.35 271.961 300.996 273.993 300.996Z" stroke="#1A1A1A" stroke-width="2" stroke-linecap="round" stroke-linejoin="round"/>
<path d="M273.864 288.761C274.413 288.761 274.858 288.316 274.858 287.767C274.858 287.218 274.413 286.773 273.864 286.773C273.314 286.773 272.869 287.218 272.869 287.767C272.869 288.316 273.314 288.761 273.864 288.761Z" stroke="#1A1A1A" stroke-width="2" stroke-linecap="round" stroke-linejoin="round"/>
<path d="M296.838 269.933V251.977" stroke="#1A1A1A" stroke-width="2" stroke-linecap="round" stroke-linejoin="round"/>
<path d="M293.887 269.929V251.973" stroke="#1A1A1A" stroke-width="2" stroke-linecap="round" stroke-linejoin="round"/>
<path d="M291.072 269.933V251.977" stroke="#1A1A1A" stroke-width="2" stroke-linecap="round" stroke-linejoin="round"/>
<path d="M288.121 269.933V251.977" stroke="#1A1A1A" stroke-width="2" stroke-linecap="round" stroke-linejoin="round"/>
<path d="M285.395 269.933V251.977" stroke="#1A1A1A" stroke-width="2" stroke-linecap="round" stroke-linejoin="round"/>
<path d="M282.443 269.933V251.977" stroke="#1A1A1A" stroke-width="2" stroke-linecap="round" stroke-linejoin="round"/>
<path d="M279.637 269.933V251.977" stroke="#1A1A1A" stroke-width="2" stroke-linecap="round" stroke-linejoin="round"/>
<path d="M276.678 269.933V251.977" stroke="#1A1A1A" stroke-width="2" stroke-linecap="round" stroke-linejoin="round"/>
<path d="M273.865 269.933V251.977" stroke="#1A1A1A" stroke-width="2" stroke-linecap="round" stroke-linejoin="round"/>
<path d="M270.914 269.933V251.977" stroke="#1A1A1A" stroke-width="2" stroke-linecap="round" stroke-linejoin="round"/>
<path d="M302.553 182.219H265.184V219.712H302.553C302.553 219.712 303.214 205.654 303.214 200.965C303.214 196.277 302.553 182.219 302.553 182.219Z" stroke="#1A1A1A" stroke-width="2" stroke-linecap="round" stroke-linejoin="round"/>
<path d="M292.999 198.132C295.911 198.132 298.271 195.778 298.271 192.875C298.271 189.971 295.911 187.617 292.999 187.617C290.087 187.617 287.727 189.971 287.727 192.875C287.727 195.778 290.087 198.132 292.999 198.132Z" stroke="#1A1A1A" stroke-width="2" stroke-linecap="round" stroke-linejoin="round"/>
<path d="M293.003 199.598C296.728 199.598 299.747 196.587 299.747 192.873C299.747 189.159 296.728 186.148 293.003 186.148C289.279 186.148 286.26 189.159 286.26 192.873C286.26 196.587 289.279 199.598 293.003 199.598Z" stroke="#1A1A1A" stroke-width="2" stroke-linecap="round" stroke-linejoin="round"/>
<path d="M276.52 197.111C278.868 197.111 280.771 195.213 280.771 192.872C280.771 190.531 278.868 188.633 276.52 188.633C274.173 188.633 272.27 190.531 272.27 192.872C272.27 195.213 274.173 197.111 276.52 197.111Z" stroke="#1A1A1A" stroke-width="2" stroke-linecap="round" stroke-linejoin="round"/>
<path d="M276.519 198.73C279.763 198.73 282.392 196.108 282.392 192.873C282.392 189.638 279.763 187.016 276.519 187.016C273.276 187.016 270.646 189.638 270.646 192.873C270.646 196.108 273.276 198.73 276.519 198.73Z" stroke="#1A1A1A" stroke-width="2" stroke-linecap="round" stroke-linejoin="round"/>
<path d="M276.521 214.87C279.276 214.87 281.51 212.643 281.51 209.896C281.51 207.149 279.276 204.922 276.521 204.922C273.765 204.922 271.531 207.149 271.531 209.896C271.531 212.643 273.765 214.87 276.521 214.87Z" stroke="#1A1A1A" stroke-width="2" stroke-linecap="round" stroke-linejoin="round"/>
<path d="M276.515 216.617C280.24 216.617 283.259 213.607 283.259 209.893C283.259 206.179 280.24 203.168 276.515 203.168C272.791 203.168 269.771 206.179 269.771 209.893C269.771 213.607 272.791 216.617 276.515 216.617Z" stroke="#1A1A1A" stroke-width="2" stroke-linecap="round" stroke-linejoin="round"/>
<path d="M293.006 214.15C295.362 214.15 297.272 212.245 297.272 209.895C297.272 207.545 295.362 205.641 293.006 205.641C290.65 205.641 288.74 207.545 288.74 209.895C288.74 212.245 290.65 214.15 293.006 214.15Z" stroke="#1A1A1A" stroke-width="2" stroke-linecap="round" stroke-linejoin="round"/>
<path d="M292.998 215.646C296.184 215.646 298.766 213.07 298.766 209.893C298.766 206.716 296.184 204.141 292.998 204.141C289.813 204.141 287.23 206.716 287.23 209.893C287.23 213.07 289.813 215.646 292.998 215.646Z" stroke="#1A1A1A" stroke-width="2" stroke-linecap="round" stroke-linejoin="round"/>
<path d="M302.553 219.715H265.184V245.248H302.553C302.553 245.248 302.793 235.45 302.793 232.257C302.793 229.064 302.553 219.715 302.553 219.715Z" stroke="#1A1A1A" stroke-width="2" stroke-linecap="round" stroke-linejoin="round"/>
<path d="M265.183 245.242H283.928V219.715H265.183V245.242Z" stroke="#1A1A1A" stroke-width="2" stroke-linecap="round" stroke-linejoin="round"/>
<path d="M283.928 219.715C283.928 219.715 276.541 233.213 265.184 245.248" stroke="#1A1A1A" stroke-width="2" stroke-linecap="round" stroke-linejoin="round"/>
<path d="M283.928 245.244C283.928 245.244 276.541 231.742 265.184 219.711" stroke="#1A1A1A" stroke-width="2" stroke-linecap="round" stroke-linejoin="round"/>
<path d="M519.143 223.497V182.457H481.287V223.497H519.143Z" stroke="#1A1A1A" stroke-width="2" stroke-linecap="round" stroke-linejoin="round"/>
<path d="M519.143 266.153V223.535H481.287V266.153H519.143Z" stroke="#1A1A1A" stroke-width="2" stroke-linecap="round" stroke-linejoin="round"/>
<path d="M519.143 322.759V266.156H481.287V322.759H519.143Z" stroke="#1A1A1A" stroke-width="2" stroke-linecap="round" stroke-linejoin="round"/>
<path d="M481.293 183.312V223.494H480.914C480.362 223.494 479.816 223.386 479.305 223.175C478.795 222.963 478.332 222.654 477.941 222.264C477.551 221.873 477.241 221.41 477.03 220.9C476.819 220.391 476.71 219.844 476.71 219.292V187.515C476.71 186.4 477.153 185.331 477.941 184.543C478.73 183.755 479.799 183.313 480.914 183.312H481.293Z" stroke="#1A1A1A" stroke-width="2" stroke-linecap="round" stroke-linejoin="round"/>
<path d="M476.704 188.691H474.73" stroke="#1A1A1A" stroke-width="2" stroke-linecap="round" stroke-linejoin="round"/>
<path d="M475.41 219.621C475.41 219.621 475.268 222.587 477.486 224.085" stroke="#1A1A1A" stroke-width="2" stroke-linecap="round" stroke-linejoin="round"/>
<path d="M475.712 224.446C475.712 224.446 474.545 223.372 474.225 222.016" stroke="#1A1A1A" stroke-width="2" stroke-linecap="round" stroke-linejoin="round"/>
<path d="M165.535 132.264V170.203H193.664V132.264H165.535Z" stroke="#1A1A1A" stroke-width="2" stroke-linecap="round" stroke-linejoin="round"/>
<path d="M193.672 143.56V158.91H195.304V143.56H193.672Z" stroke="#1A1A1A" stroke-width="2" stroke-linecap="round" stroke-linejoin="round"/>
<path d="M193.664 170.201C193.664 170.201 178.139 147.631 165.535 132.262" stroke="#1A1A1A" stroke-width="2" stroke-linecap="round" stroke-linejoin="round"/>
<path d="M193.664 132.262C193.664 132.262 178.139 154.832 165.535 170.201" stroke="#1A1A1A" stroke-width="2" stroke-linecap="round" stroke-linejoin="round"/>
<path d="M519.057 138.55V110.445H422.108V138.55H519.057Z" stroke="#1A1A1A" stroke-width="2" stroke-linecap="round" stroke-linejoin="round"/>
<path d="M424.898 124.293H516.22" stroke="#1A1A1A" stroke-width="2" stroke-linecap="round" stroke-linejoin="round"/>
<path d="M514.11 114.781L510.1 135.918" stroke="#1A1A1A" stroke-width="2" stroke-linecap="round" stroke-linejoin="round"/>
<path d="M507.389 134.168V114.508" stroke="#1A1A1A" stroke-width="2" stroke-linecap="round" stroke-linejoin="round"/>
<path d="M497.885 112.617L503.816 135.461" stroke="#1A1A1A" stroke-width="2" stroke-linecap="round" stroke-linejoin="round"/>
<path d="M496.062 135.185L494.359 112.617" stroke="#1A1A1A" stroke-width="2" stroke-linecap="round" stroke-linejoin="round"/>
<path d="M489.782 113.586L488.91 132.323" stroke="#1A1A1A" stroke-width="2" stroke-linecap="round" stroke-linejoin="round"/>
<path d="M484.542 114.273L482.623 135.456" stroke="#1A1A1A" stroke-width="2" stroke-linecap="round" stroke-linejoin="round"/>
<path d="M479.655 131.304L478.959 115.289" stroke="#1A1A1A" stroke-width="2" stroke-linecap="round" stroke-linejoin="round"/>
<path d="M471.238 114.781L476.034 134.395" stroke="#1A1A1A" stroke-width="2" stroke-linecap="round" stroke-linejoin="round"/>
<path d="M468.717 117.555L469.111 135.462" stroke="#1A1A1A" stroke-width="2" stroke-linecap="round" stroke-linejoin="round"/>
<path d="M464.963 113.586C464.963 113.586 464.04 126.232 461.777 134.4" stroke="#1A1A1A" stroke-width="2" stroke-linecap="round" stroke-linejoin="round"/>
<path d="M463.764 117.328C463.63 119.121 463.368 120.901 462.979 122.656" stroke="#1A1A1A" stroke-width="2" stroke-linecap="round" stroke-linejoin="round"/>
<path d="M462.412 125.836L462.258 126.507" stroke="#1A1A1A" stroke-width="2" stroke-linecap="round" stroke-linejoin="round"/>
<path d="M469.979 127.914V128.56" stroke="#1A1A1A" stroke-width="2" stroke-linecap="round" stroke-linejoin="round"/>
<path d="M469.979 130.82V133.912" stroke="#1A1A1A" stroke-width="2" stroke-linecap="round" stroke-linejoin="round"/>
<path d="M490.127 125.812L490.01 128.234" stroke="#1A1A1A" stroke-width="2" stroke-linecap="round" stroke-linejoin="round"/>
<path d="M458.622 135.185L456.922 112.617" stroke="#1A1A1A" stroke-width="2" stroke-linecap="round" stroke-linejoin="round"/>
<path d="M452.346 113.586L451.475 132.323" stroke="#1A1A1A" stroke-width="2" stroke-linecap="round" stroke-linejoin="round"/>
<path d="M452.689 125.812L452.572 128.234" stroke="#1A1A1A" stroke-width="2" stroke-linecap="round" stroke-linejoin="round"/>
<path d="M499.754 115.289L500.046 116.243" stroke="#1A1A1A" stroke-width="2" stroke-linecap="round" stroke-linejoin="round"/>
<path d="M500.389 117.535L501.639 121.445" stroke="#1A1A1A" stroke-width="2" stroke-linecap="round" stroke-linejoin="round"/>
<path d="M512.398 129.012L511.816 131.75" stroke="#1A1A1A" stroke-width="2" stroke-linecap="round" stroke-linejoin="round"/>
<path d="M511.44 133.164L511.268 133.687" stroke="#1A1A1A" stroke-width="2" stroke-linecap="round" stroke-linejoin="round"/>
<path d="M447.884 114.781L443.873 135.918" stroke="#1A1A1A" stroke-width="2" stroke-linecap="round" stroke-linejoin="round"/>
<path d="M441.172 134.168V114.508" stroke="#1A1A1A" stroke-width="2" stroke-linecap="round" stroke-linejoin="round"/>
<path d="M431.666 112.617L437.597 135.461" stroke="#1A1A1A" stroke-width="2" stroke-linecap="round" stroke-linejoin="round"/>
<path d="M429.836 135.185L428.133 112.617" stroke="#1A1A1A" stroke-width="2" stroke-linecap="round" stroke-linejoin="round"/>
<path d="M433.527 115.289L433.82 116.243" stroke="#1A1A1A" stroke-width="2" stroke-linecap="round" stroke-linejoin="round"/>
<path d="M434.162 117.535L435.412 121.445" stroke="#1A1A1A" stroke-width="2" stroke-linecap="round" stroke-linejoin="round"/>
<path d="M446.172 129.012L445.59 131.75" stroke="#1A1A1A" stroke-width="2" stroke-linecap="round" stroke-linejoin="round"/>
<path d="M445.213 133.164L445.041 133.687" stroke="#1A1A1A" stroke-width="2" stroke-linecap="round" stroke-linejoin="round"/>
<path d="M481.207 175.43H519.176V138.601H481.207V175.43Z" stroke="#1A1A1A" stroke-width="2" stroke-linecap="round" stroke-linejoin="round"/>
<path d="M500.475 141.086V173.288" stroke="#1A1A1A" stroke-width="2" stroke-linecap="round" stroke-linejoin="round"/>
<path d="M513.314 164.161L484.76 159.906" stroke="#1A1A1A" stroke-width="2" stroke-linecap="round" stroke-linejoin="round"/>
<path d="M487.127 157.039H513.689" stroke="#1A1A1A" stroke-width="2" stroke-linecap="round" stroke-linejoin="round"/>
<path d="M516.247 146.957L485.385 153.248" stroke="#1A1A1A" stroke-width="2" stroke-linecap="round" stroke-linejoin="round"/>
<path d="M485.754 145.014L516.241 143.211" stroke="#1A1A1A" stroke-width="2" stroke-linecap="round" stroke-linejoin="round"/>
<path d="M514.936 168.848L489.623 167.922" stroke="#1A1A1A" stroke-width="2" stroke-linecap="round" stroke-linejoin="round"/>
<path d="M498.414 169.217L495.139 169.094" stroke="#1A1A1A" stroke-width="2" stroke-linecap="round" stroke-linejoin="round"/>
<path d="M512.631 148.93L511.344 149.24" stroke="#1A1A1A" stroke-width="2" stroke-linecap="round" stroke-linejoin="round"/>
<path d="M509.597 149.609L504.318 150.935" stroke="#1A1A1A" stroke-width="2" stroke-linecap="round" stroke-linejoin="round"/>
<path d="M494.091 162.346L490.395 161.73" stroke="#1A1A1A" stroke-width="2" stroke-linecap="round" stroke-linejoin="round"/>
<path d="M488.475 161.325L487.77 161.141" stroke="#1A1A1A" stroke-width="2" stroke-linecap="round" stroke-linejoin="round"/>
<path d="M459.335 366.67C459.335 366.67 455.23 355.783 458.855 351.172" stroke="#1A1A1A" stroke-width="2" stroke-linecap="round" stroke-linejoin="round"/>
<path d="M459.334 413.728H517.313C519.775 401.604 518.852 351.674 517.621 351.231C517.267 351.101 459.109 350.898 459.109 350.898" stroke="#1A1A1A" stroke-width="2" stroke-linecap="round" stroke-linejoin="round"/>
<path d="M517.624 351.227C514.002 357.561 501.85 366.669 501.85 366.669C482.881 368.281 459.325 366.669 459.325 366.669C459.325 366.669 458.473 369.976 458.073 372.893C457.673 375.809 457.349 405.285 459.325 413.724" stroke="#1A1A1A" stroke-width="2" stroke-linecap="round" stroke-linejoin="round"/>
<path d="M459.335 460.781C459.335 460.781 455.23 471.671 458.855 476.282" stroke="#1A1A1A" stroke-width="2" stroke-linecap="round" stroke-linejoin="round"/>
<path d="M459.336 413.727H517.315C519.777 425.847 518.854 475.781 517.623 476.224C517.269 476.353 459.084 476.556 459.084 476.556" stroke="#1A1A1A" stroke-width="2" stroke-linecap="round" stroke-linejoin="round"/>
<path d="M517.624 476.224C514.002 469.89 501.85 460.778 501.85 460.778C482.881 459.169 459.325 460.778 459.325 460.778C459.325 460.778 458.473 457.474 458.073 454.558C457.673 451.641 457.349 422.165 459.325 413.727" stroke="#1A1A1A" stroke-width="2" stroke-linecap="round" stroke-linejoin="round"/>
<path d="M501.852 366.672C501.852 366.672 500.895 387.504 501.055 393.226C501.215 398.948 501.48 409.336 502.705 413.726C502.705 413.726 498.396 441.963 501.852 460.777" stroke="#1A1A1A" stroke-width="2" stroke-linecap="round" stroke-linejoin="round"/>
<path d="M456.86 366.671C456.86 366.671 455.364 361.986 455.197 358.922" stroke="#1A1A1A" stroke-width="2" stroke-linecap="round" stroke-linejoin="round"/>
<path d="M454.147 363.629C454.147 363.629 453.094 360.641 453.26 358.922" stroke="#1A1A1A" stroke-width="2" stroke-linecap="round" stroke-linejoin="round"/>
<path d="M488.67 458.319C488.67 458.319 494.499 458.085 498.408 458.786" stroke="#1A1A1A" stroke-width="2" stroke-linecap="round" stroke-linejoin="round"/>
<path d="M499.445 366.86C499.445 366.86 503.04 362.836 503.868 360.91" stroke="#1A1A1A" stroke-width="2" stroke-linecap="round" stroke-linejoin="round"/>
<path d="M500.518 413.727C500.518 413.727 498.778 417.895 498.408 420.153" stroke="#1A1A1A" stroke-width="2" stroke-linecap="round" stroke-linejoin="round"/>
<path d="M499.439 413.727C498.641 414.542 498.013 415.509 497.592 416.569" stroke="#1A1A1A" stroke-width="2" stroke-linecap="round" stroke-linejoin="round"/>
<path d="M303.072 466.926H320.266V360.097H303.072V466.926Z" stroke="#1A1A1A" stroke-width="2" stroke-linecap="round" stroke-linejoin="round"/>
<path d="M307.924 376.402H313.412V369.099H307.924V376.402Z" stroke="#1A1A1A" stroke-width="2" stroke-linecap="round" stroke-linejoin="round"/>
<path d="M313.412 376.405C314.659 376.405 315.671 374.768 315.671 372.753C315.671 370.738 314.659 369.102 313.412 369.102" stroke="#1A1A1A" stroke-width="2" stroke-linecap="round" stroke-linejoin="round"/>
<path d="M315.634 373.414H313.412" stroke="#1A1A1A" stroke-width="2" stroke-linecap="round" stroke-linejoin="round"/>
<path d="M314.527 375.933V369.574" stroke="#1A1A1A" stroke-width="2" stroke-linecap="round" stroke-linejoin="round"/>
<path d="M315.26 370.648V374.86H313.412" stroke="#1A1A1A" stroke-width="2" stroke-linecap="round" stroke-linejoin="round"/>
<path d="M313.412 371.992H315.644" stroke="#1A1A1A" stroke-width="2" stroke-linecap="round" stroke-linejoin="round"/>
<path d="M313.412 370.82H315.331" stroke="#1A1A1A" stroke-width="2" stroke-linecap="round" stroke-linejoin="round"/>
<path d="M315.83 366.509L317.028 364.863" stroke="#1A1A1A" stroke-width="2" stroke-linecap="round" stroke-linejoin="round"/>
<path d="M317.916 369.004C319.413 367.734 321.038 366.623 322.764 365.688" stroke="#1A1A1A" stroke-width="2" stroke-linecap="round" stroke-linejoin="round"/>
<path d="M319.76 370.82H321.857" stroke="#1A1A1A" stroke-width="2" stroke-linecap="round" stroke-linejoin="round"/>
<path d="M319.527 374.656C319.527 374.656 322.704 376.536 323.784 377.449" stroke="#1A1A1A" stroke-width="2" stroke-linecap="round" stroke-linejoin="round"/>
<path d="M317.254 377.895C317.254 377.895 320.024 381.017 321.658 382.38" stroke="#1A1A1A" stroke-width="2" stroke-linecap="round" stroke-linejoin="round"/>
<path d="M314.74 379.555C314.74 379.555 314.959 380.268 315.258 381.597" stroke="#1A1A1A" stroke-width="2" stroke-linecap="round" stroke-linejoin="round"/>
<path d="M307.924 458.672H313.412V451.369H307.924V458.672Z" stroke="#1A1A1A" stroke-width="2" stroke-linecap="round" stroke-linejoin="round"/>
<path d="M313.412 458.673C314.659 458.673 315.671 457.037 315.671 455.019C315.671 453.001 314.659 451.367 313.412 451.367" stroke="#1A1A1A" stroke-width="2" stroke-linecap="round" stroke-linejoin="round"/>
<path d="M315.634 455.688H313.412" stroke="#1A1A1A" stroke-width="2" stroke-linecap="round" stroke-linejoin="round"/>
<path d="M314.527 458.198V451.836" stroke="#1A1A1A" stroke-width="2" stroke-linecap="round" stroke-linejoin="round"/>
<path d="M315.26 452.914V457.125H313.412" stroke="#1A1A1A" stroke-width="2" stroke-linecap="round" stroke-linejoin="round"/>
<path d="M313.412 454.262H315.644" stroke="#1A1A1A" stroke-width="2" stroke-linecap="round" stroke-linejoin="round"/>
<path d="M313.412 453.086H315.331" stroke="#1A1A1A" stroke-width="2" stroke-linecap="round" stroke-linejoin="round"/>
<path d="M315.83 448.775L317.028 447.129" stroke="#1A1A1A" stroke-width="2" stroke-linecap="round" stroke-linejoin="round"/>
<path d="M317.916 451.269C319.413 450 321.038 448.889 322.764 447.953" stroke="#1A1A1A" stroke-width="2" stroke-linecap="round" stroke-linejoin="round"/>
<path d="M319.76 453.086H321.857" stroke="#1A1A1A" stroke-width="2" stroke-linecap="round" stroke-linejoin="round"/>
<path d="M319.527 456.922C319.527 456.922 322.704 458.798 323.784 459.712" stroke="#1A1A1A" stroke-width="2" stroke-linecap="round" stroke-linejoin="round"/>
<path d="M317.254 460.164C317.254 460.164 320.024 463.29 321.658 464.652" stroke="#1A1A1A" stroke-width="2" stroke-linecap="round" stroke-linejoin="round"/>
<path d="M314.74 461.824C314.74 461.824 314.959 462.541 315.258 463.87" stroke="#1A1A1A" stroke-width="2" stroke-linecap="round" stroke-linejoin="round"/>
<path d="M309.415 442.758H311.649C311.831 442.758 311.979 442.61 311.979 442.429V385.549C311.979 385.367 311.831 385.22 311.649 385.22H309.415C309.233 385.22 309.085 385.367 309.085 385.549V442.429C309.085 442.61 309.233 442.758 309.415 442.758Z" stroke="#1A1A1A" stroke-width="2" stroke-linecap="round" stroke-linejoin="round"/>
<path d="M309.087 402.328C306.748 403.78 305.064 407.865 305.064 412.704C305.064 417.543 306.748 421.625 309.087 423.084V402.328Z" stroke="#1A1A1A" stroke-width="2" stroke-linecap="round" stroke-linejoin="round"/>
<path d="M311.979 401.93V423.482C314.749 422.584 316.851 418.101 316.851 412.715C316.851 407.328 314.746 402.828 311.979 401.93Z" stroke="#1A1A1A" stroke-width="2" stroke-linecap="round" stroke-linejoin="round"/>
<path d="M470.073 521.515C470.073 521.515 469.504 510.441 466.457 508.001C463.656 505.771 457.805 505.516 457.805 505.516C457.805 505.516 459.331 512.419 462.255 515.187C465.179 517.956 465.349 518.663 470.073 521.515Z" stroke="#1A1A1A" stroke-width="2" stroke-linecap="round" stroke-linejoin="round"/>
<path d="M457.051 504.856C457.051 504.856 463.105 507.36 465.792 507.363C468.479 507.366 472.025 504.988 473.244 504.287C474.755 503.41 478.002 502.82 478.002 502.82C478.002 502.82 473.949 500.069 471.871 499.98C470.618 499.928 468.384 499.912 466.558 500.903" stroke="#1A1A1A" stroke-width="2" stroke-linecap="round" stroke-linejoin="round"/>
<path d="M456.725 504.884C456.725 504.884 462.265 504.417 465.734 501.629C469.202 498.842 471.154 494.176 471.154 494.176C471.154 494.176 468.181 493.868 466.008 494.619C463.197 495.572 460.437 499.559 460.437 499.559L456.725 504.884Z" stroke="#1A1A1A" stroke-width="2" stroke-linecap="round" stroke-linejoin="round"/>
<path d="M453.205 523.288C453.205 523.288 460.284 517.526 459.807 513.478C459.33 509.43 457.96 506.073 457.708 505.809C457.456 505.544 457.111 505.086 457.111 505.086C457.111 505.086 453.975 509.793 453.3 513.016C452.626 516.24 452.639 518.354 453.205 523.288Z" stroke="#1A1A1A" stroke-width="2" stroke-linecap="round" stroke-linejoin="round"/>
<path d="M456.524 505.773C456.524 505.773 446.146 505.86 441.643 519.072C441.643 519.072 448.479 517.903 450.809 515.288C453.139 512.673 454.16 510.182 456.524 505.773Z" stroke="#1A1A1A" stroke-width="2" stroke-linecap="round" stroke-linejoin="round"/>
<path d="M442.184 493.626C455.154 493.497 456.724 504.888 456.724 504.888C456.724 504.888 445.766 504.036 442.184 493.626Z" stroke="#1A1A1A" stroke-width="2" stroke-linecap="round" stroke-linejoin="round"/>
<path d="M451.221 507.24C451.221 507.24 448.854 508.397 443.637 507.987C438.42 507.578 436.693 506.24 436.693 506.24C440.695 502.487 448.75 502.02 448.75 502.02" stroke="#1A1A1A" stroke-width="2" stroke-linecap="round" stroke-linejoin="round"/>
<path d="M454.527 504.488L456.814 505.159L455.118 505.94" stroke="#1A1A1A" stroke-width="2" stroke-linecap="round" stroke-linejoin="round"/>
<path d="M462.518 497.079C464.909 492.259 462.98 487.297 462.98 487.297C462.98 487.297 459.52 489.081 457.35 494.163C455.18 499.245 456.682 504.622 456.682 504.622" stroke="#1A1A1A" stroke-width="2" stroke-linecap="round" stroke-linejoin="round"/>
<path d="M256.062 262.742H151.957C150.98 262.742 150.188 263.534 150.188 264.511V306.163C150.188 307.14 150.98 307.932 151.957 307.932H256.062C257.039 307.932 257.831 307.14 257.831 306.163V264.511C257.831 263.534 257.039 262.742 256.062 262.742Z" stroke="#1A1A1A" stroke-width="2" stroke-linecap="round" stroke-linejoin="round"/>
<path d="M160.951 283.875H152.946C152.337 283.875 151.844 284.368 151.844 284.976V285.712C151.844 286.32 152.337 286.813 152.946 286.813H160.951C161.56 286.813 162.053 286.32 162.053 285.712V284.976C162.053 284.368 161.56 283.875 160.951 283.875Z" stroke="#1A1A1A" stroke-width="2" stroke-linecap="round" stroke-linejoin="round"/>
<path d="M239.882 267.523H155.723C155.253 267.524 154.803 267.711 154.471 268.044C154.139 268.376 153.953 268.826 153.953 269.295V283.871H160.949C161.094 283.871 161.237 283.899 161.371 283.954C161.505 284.01 161.626 284.091 161.728 284.193C161.831 284.295 161.912 284.417 161.967 284.55C162.023 284.684 162.051 284.827 162.051 284.972V285.701C162.051 285.993 161.935 286.273 161.728 286.48C161.522 286.686 161.241 286.802 160.949 286.802H153.953V301.39C153.953 301.859 154.139 302.309 154.471 302.642C154.803 302.974 155.253 303.161 155.723 303.162H239.882C241.503 303.162 243.108 302.843 244.605 302.223C246.102 301.603 247.463 300.694 248.609 299.549C249.755 298.403 250.663 297.043 251.283 295.546C251.903 294.05 252.222 292.446 252.222 290.826V279.856C252.222 276.585 250.922 273.448 248.608 271.136C246.294 268.823 243.155 267.523 239.882 267.523Z" stroke="#1A1A1A" stroke-width="2" stroke-linecap="round" stroke-linejoin="round"/>
<path d="M245.704 296.219C245.704 296.219 242.66 300.421 236.273 300.645" stroke="#1A1A1A" stroke-width="2" stroke-linecap="round" stroke-linejoin="round"/>
<path d="M234.102 301.055C233.288 301.098 232.472 301.098 231.658 301.055" stroke="#1A1A1A" stroke-width="2" stroke-linecap="round" stroke-linejoin="round"/>
<path d="M166.517 220.354C170.487 220.065 187.696 219.915 188.244 238.91V239.009C187.69 257.998 170.487 257.848 166.517 257.559C166.296 257.543 166.089 257.444 165.939 257.282C165.789 257.119 165.706 256.906 165.707 256.685V221.228C165.706 221.007 165.789 220.794 165.939 220.631C166.089 220.469 166.296 220.37 166.517 220.354Z" stroke="#1A1A1A" stroke-width="2" stroke-linecap="round" stroke-linejoin="round"/>
<path d="M168.633 240.227H175.219C175.773 240.227 176.223 239.778 176.223 239.224V239.221C176.223 238.667 175.773 238.218 175.219 238.218H168.633C168.078 238.218 167.629 238.667 167.629 239.221V239.224C167.629 239.778 168.078 240.227 168.633 240.227Z" stroke="#1A1A1A" stroke-width="2" stroke-linecap="round" stroke-linejoin="round"/>
<path d="M181.149 227.385C177.874 224.226 173.396 224.149 171.998 224.595C170.678 225.02 170.287 226.22 170.287 227.198V238.22H175.212C175.348 238.212 175.485 238.233 175.614 238.28C175.742 238.327 175.86 238.4 175.959 238.494C176.059 238.588 176.138 238.701 176.192 238.827C176.246 238.952 176.274 239.088 176.274 239.224C176.274 239.361 176.246 239.497 176.192 239.622C176.138 239.748 176.059 239.861 175.959 239.955C175.86 240.049 175.742 240.122 175.614 240.169C175.485 240.216 175.348 240.236 175.212 240.229H170.287V250.719C170.287 251.697 170.678 252.897 171.998 253.321C173.396 253.767 177.874 253.69 181.149 250.531C183.968 247.812 185.834 243.705 185.834 238.958C185.834 234.212 183.968 230.105 181.149 227.385Z" stroke="#1A1A1A" stroke-width="2" stroke-linecap="round" stroke-linejoin="round"/>
<path d="M168.352 235.465C169.063 235.333 169.533 234.648 169.4 233.937C169.268 233.225 168.583 232.756 167.871 232.889C167.159 233.021 166.69 233.706 166.822 234.417C166.955 235.129 167.64 235.598 168.352 235.465Z" stroke="#1A1A1A" stroke-width="2" stroke-linecap="round" stroke-linejoin="round"/>
<path d="M168.106 245.297C168.83 245.297 169.417 244.71 169.417 243.986C169.417 243.262 168.83 242.676 168.106 242.676C167.382 242.676 166.795 243.262 166.795 243.986C166.795 244.71 167.382 245.297 168.106 245.297Z" stroke="#1A1A1A" stroke-width="2" stroke-linecap="round" stroke-linejoin="round"/>
<path d="M169.051 228.485C169.051 228.485 168.884 225.501 169.639 224.75" stroke="#1A1A1A" stroke-width="2" stroke-linecap="round" stroke-linejoin="round"/>
<path d="M184.527 254.525C184.527 254.525 189.661 249.247 190.108 241.734" stroke="#1A1A1A" stroke-width="2" stroke-linecap="round" stroke-linejoin="round"/>
<path d="M187.916 252.666C187.916 252.666 189.329 251.106 190.409 247.461" stroke="#1A1A1A" stroke-width="2" stroke-linecap="round" stroke-linejoin="round"/>
<path d="M171.513 231.403C171.513 231.403 171.458 229.357 171.513 228.299C171.568 227.241 172.372 226.127 173.36 226.051C173.939 225.999 174.523 226.052 175.083 226.207" stroke="#1A1A1A" stroke-width="2" stroke-linecap="round" stroke-linejoin="round"/>
<path d="M172.586 228.487C172.586 228.487 172.623 227.308 173.51 227.047" stroke="#1A1A1A" stroke-width="2" stroke-linecap="round" stroke-linejoin="round"/>
<path d="M173.987 184.5H166.769C166.144 184.5 165.637 185.007 165.637 185.632V204.52C165.637 205.145 166.144 205.652 166.769 205.652H173.987C174.613 205.652 175.12 205.145 175.12 204.52V185.632C175.12 185.007 174.613 184.5 173.987 184.5Z" stroke="#1A1A1A" stroke-width="2" stroke-linecap="round" stroke-linejoin="round"/>
<path d="M189.111 205.664H176.245C175.945 205.664 175.657 205.545 175.445 205.332C175.232 205.12 175.113 204.832 175.113 204.532V185.641C175.113 185.341 175.232 185.053 175.445 184.84C175.657 184.628 175.945 184.509 176.245 184.509H189.111C191.788 184.509 194.355 185.57 196.249 187.46C198.143 189.35 199.209 191.915 199.213 194.59V195.552C199.215 196.88 198.955 198.194 198.448 199.421C197.942 200.648 197.198 201.762 196.26 202.702C195.321 203.641 194.207 204.386 192.98 204.894C191.754 205.402 190.439 205.664 189.111 205.664Z" stroke="#1A1A1A" stroke-width="2" stroke-linecap="round" stroke-linejoin="round"/>
<path d="M172.108 192.289H168.494V198.758H172.108V192.289Z" stroke="#1A1A1A" stroke-width="2" stroke-linecap="round" stroke-linejoin="round"/>
<path d="M172.108 192.289H168.494V195.082H172.108V192.289Z" stroke="#1A1A1A" stroke-width="2" stroke-linecap="round" stroke-linejoin="round"/>
<path d="M195.096 205.661C195.096 205.661 198.709 204.889 200.174 200.641" stroke="#1A1A1A" stroke-width="2" stroke-linecap="round" stroke-linejoin="round"/>
<path d="M200.404 203.031C200.404 203.031 199.172 204.662 198.107 205.225" stroke="#1A1A1A" stroke-width="2" stroke-linecap="round" stroke-linejoin="round"/>
<path d="M467.627 340.82H438.889V344.004H467.627V340.82Z" stroke="#1A1A1A" stroke-width="2" stroke-linecap="round" stroke-linejoin="round"/>
<path d="M463.018 310.367H443.498C440.532 310.367 438.127 312.771 438.127 315.735V333.722C438.127 336.687 440.532 339.09 443.498 339.09H463.018C465.984 339.09 468.389 336.687 468.389 333.722V315.735C468.389 312.771 465.984 310.367 463.018 310.367Z" stroke="#1A1A1A" stroke-width="2" stroke-linecap="round" stroke-linejoin="round"/>
<path d="M438.888 248.273H467.627V245.09H438.888V248.273Z" stroke="#1A1A1A" stroke-width="2" stroke-linecap="round" stroke-linejoin="round"/>
<path d="M443.5 278.727H463.02C465.986 278.727 468.391 276.323 468.391 273.359V255.372C468.391 252.407 465.986 250.004 463.02 250.004H443.5C440.533 250.004 438.129 252.407 438.129 255.372V273.359C438.129 276.323 440.533 278.727 443.5 278.727Z" stroke="#1A1A1A" stroke-width="2" stroke-linecap="round" stroke-linejoin="round"/>
<path d="M464.72 345.766H452.984" stroke="#1A1A1A" stroke-width="2" stroke-linecap="round" stroke-linejoin="round"/>
<path d="M450.081 345.766H447.932" stroke="#1A1A1A" stroke-width="2" stroke-linecap="round" stroke-linejoin="round"/>
<path d="M481.328 315.316V273.451C481.328 269.194 477.875 265.742 473.615 265.742H433.208C428.948 265.742 425.495 269.194 425.495 273.451V315.316C425.495 319.574 428.948 323.025 433.208 323.025H473.615C477.875 323.025 481.328 319.574 481.328 315.316Z" stroke="#1A1A1A" stroke-width="2" stroke-linecap="round" stroke-linejoin="round"/>
<path d="M546.715 360.781H519.312V493.503H546.715V360.781Z" fill="#1A1A1A" stroke="#1A1A1A" stroke-width="3.59" stroke-linecap="round" stroke-linejoin="round"/>
<path d="M297.938 175.32H261.631V181.947H297.938V175.32Z" fill="#1A1A1A" stroke="#1A1A1A" stroke-width="3.59" stroke-linecap="round" stroke-linejoin="round"/>
<path d="M302.181 165.625H295.551V181.948H302.181V165.625Z" fill="#1A1A1A" stroke="#1A1A1A" stroke-width="3.59" stroke-linecap="round" stroke-linejoin="round"/>
<path d="M302.181 95.5508H295.551V115.513H302.181V95.5508Z" fill="#1A1A1A" stroke="#1A1A1A" stroke-width="3.59" stroke-linecap="round" stroke-linejoin="round"/>
<path d="M264.778 175.32H258.148V313.991H264.778V175.32Z" fill="#1A1A1A" stroke="#1A1A1A" stroke-width="3.59" stroke-linecap="round" stroke-linejoin="round"/>
<path d="M302.572 308.027H288.773V500.105H302.572V308.027Z" fill="#1A1A1A" stroke="#1A1A1A" stroke-width="3.59" stroke-linecap="round" stroke-linejoin="round"/>
<path d="M295.116 308.023H137.148V321.857H295.116V308.023Z" fill="#1A1A1A" stroke="#1A1A1A" stroke-width="3.59" stroke-linecap="round" stroke-linejoin="round"/>
<path d="M527.961 175.289H480.281V181.915H527.961V175.289Z" fill="#1A1A1A" stroke="#1A1A1A" stroke-width="3.59" stroke-linecap="round" stroke-linejoin="round"/>
<path d="M172.737 127.848H142.373V131.958H172.737V127.848Z" fill="#1A1A1A" stroke="#1A1A1A" stroke-width="3.59" stroke-linecap="round" stroke-linejoin="round"/>
<path d="M176.221 101.234H171.693V131.957H176.221V101.234Z" fill="#1A1A1A" stroke="#1A1A1A" stroke-width="3.59" stroke-linecap="round" stroke-linejoin="round"/>
<path d="M531.654 92.2578H399.814V110.198H531.654V92.2578Z" fill="#1A1A1A" stroke="#1A1A1A" stroke-width="3.59" stroke-linecap="round" stroke-linejoin="round"/>
<path d="M334.55 92.3438H140.34V110.284H334.55V92.3438Z" fill="#1A1A1A" stroke="#1A1A1A" stroke-width="3.59" stroke-linecap="round" stroke-linejoin="round"/>
<path d="M149.935 92.3477H134.549V151.209H149.935V92.3477Z" fill="#1A1A1A" stroke="#1A1A1A" stroke-width="3.59" stroke-linecap="round" stroke-linejoin="round"/>
<path d="M149.934 150.148H137.148V319.001H149.934V150.148Z" fill="#1A1A1A" stroke="#1A1A1A" stroke-width="3.59" stroke-linecap="round" stroke-linejoin="round"/>
<path d="M531.649 100.035H519.312V444.064H531.649V100.035Z" fill="#1A1A1A" stroke="#1A1A1A" stroke-width="3.59" stroke-linecap="round" stroke-linejoin="round"/>
<path d="M531.485 265.871H493.809V322.077H531.485V265.871Z" fill="#1A1A1A" stroke="#1A1A1A" stroke-width="3.59" stroke-linecap="round" stroke-linejoin="round"/>
<path d="M541.667 477.781H494.188V534.083H541.667V477.781Z" fill="#1A1A1A" stroke="#1A1A1A" stroke-width="3.59" stroke-linecap="round" stroke-linejoin="round"/>
<path d="M541.668 477.781H482.203V537.611H541.668V477.781Z" fill="#1A1A1A" stroke="#1A1A1A" stroke-width="3.59" stroke-linecap="round" stroke-linejoin="round"/>
<path d="M572.444 568.099L546.713 474.969H541.674H538.624H531.461V527.49H479.174V534.648V537.693V542.729L572.444 568.099Z" fill="#1A1A1A" stroke="#1A1A1A" stroke-width="3.59" stroke-linecap="round" stroke-linejoin="round"/>
<path d="M328.876 490.242H288.773V533.19H328.876V490.242Z" fill="#1A1A1A" stroke="#1A1A1A" stroke-width="3.59" stroke-linecap="round" stroke-linejoin="round"/>
<path d="M288.773 527.492V558.424L300.703 568.452L331.797 542.732V527.492H288.773Z" fill="#1A1A1A" stroke="#1A1A1A" stroke-width="3.59" stroke-linecap="round" stroke-linejoin="round"/>
<path d="M479.627 527.484H332.721V542.727H479.627V527.484Z" stroke="#1A1A1A" stroke-width="2" stroke-linecap="round" stroke-linejoin="round"/>
<path d="M381.572 527.484H379.184V542.727H381.572V527.484Z" fill="#1A1A1A" stroke="#1A1A1A" stroke-width="2" stroke-linecap="round" stroke-linejoin="round"/>
<path d="M478.467 527.484H476.078V542.727H478.467V527.484Z" fill="#1A1A1A" stroke="#1A1A1A" stroke-width="2" stroke-linecap="round" stroke-linejoin="round"/>
<path d="M334.664 527.484H332.275V542.727H334.664V527.484Z" fill="#1A1A1A" stroke="#1A1A1A" stroke-width="2" stroke-linecap="round" stroke-linejoin="round"/>
<path d="M479.627 537.688H332.721V541.136H479.627V537.688Z" stroke="#1A1A1A" stroke-width="2" stroke-linecap="round" stroke-linejoin="round"/>
<path d="M379.623 537.688H334.258V541.136H379.623V537.688Z" stroke="#1A1A1A" stroke-width="2" stroke-linecap="round" stroke-linejoin="round"/>
<path d="M375.962 537.688H337.895V541.136H375.962V537.688Z" stroke="#1A1A1A" stroke-width="2" stroke-linecap="round" stroke-linejoin="round"/>
<path d="M334.566 93.3717V99.3242H337.37V93.3717H334.566Z" stroke="#1A1A1A" stroke-width="2" stroke-linecap="round" stroke-linejoin="round"/>
<path d="M378.751 51.3154L337.525 93.4492L339.878 95.7484L381.103 53.6146L378.751 51.3154Z" stroke="#1A1A1A" stroke-width="2" stroke-linecap="round" stroke-linejoin="round"/>
<path d="M397.25 93.3717V99.3242H399.863V93.3717H397.25Z" stroke="#1A1A1A" stroke-width="2" stroke-linecap="round" stroke-linejoin="round"/>
<path d="M381.098 53.6055C381.098 53.6055 397.044 69.9834 397.254 93.3752" stroke="#1A1A1A" stroke-width="2" stroke-linecap="round" stroke-linejoin="round"/>
<path d="M296.507 117.629H301.041V115.5H296.507V117.629Z" stroke="#1A1A1A" stroke-width="2" stroke-linecap="round" stroke-linejoin="round"/>
<path d="M264.463 149.044L296.556 117.746L298.308 119.533L266.214 150.831L264.463 149.044Z" stroke="#1A1A1A" stroke-width="2" stroke-linecap="round" stroke-linejoin="round"/>
<path d="M296.507 165.082H301.041V163.098H296.507V165.082Z" stroke="#1A1A1A" stroke-width="2" stroke-linecap="round" stroke-linejoin="round"/>
<path d="M266.213 150.832C266.213 150.832 278.685 162.94 296.503 163.097" stroke="#1A1A1A" stroke-width="2" stroke-linecap="round" stroke-linejoin="round"/>
<path d="M358.388 144.879L355.686 141.086H356.988L359.047 143.971L361.128 141.086H362.359L359.656 144.833L362.553 148.893H361.26L359.004 145.734L356.729 148.887H355.498L358.388 144.879Z" fill="#1A1A1A"/>
<path d="M368.501 146.018C368.501 148.116 367.07 149.033 365.731 149.033C364.392 149.033 362.961 148.11 362.961 146.018C362.961 143.926 364.395 143 365.731 143C367.067 143 368.501 143.917 368.501 146.018ZM365.731 148.171C366.627 148.171 367.467 147.504 367.467 146.018C367.467 144.464 366.627 143.864 365.731 143.864C364.835 143.864 363.998 144.437 363.998 146.018C363.998 147.599 364.838 148.171 365.722 148.171H365.731Z" fill="#1A1A1A"/>
<path d="M374.226 148.894H373.244V143.951H371.305L371.219 145.353C371.077 147.688 370.573 148.894 369.225 148.894H369.043V148.045H369.151C369.668 148.045 370.163 147.485 370.28 145.083L370.366 143.102H374.235L374.226 148.894Z" fill="#1A1A1A"/>
<path d="M380.464 148.894H379.485V143.951H377.534L377.448 145.353C377.309 147.688 376.801 148.894 375.456 148.894H375.271V148.045H375.379C375.896 148.045 376.392 147.485 376.512 145.083L376.598 143.102H380.464V148.894Z" fill="#1A1A1A"/>
<path d="M359.634 159.63C359.634 158.511 358.634 158.145 357.384 158.145H357.221V157.249H357.35C358.72 157.249 359.431 156.871 359.431 155.957C359.431 155.127 358.742 154.687 357.911 154.687C357.7 154.671 357.488 154.699 357.289 154.767C357.089 154.835 356.905 154.942 356.747 155.083C356.59 155.223 356.462 155.394 356.372 155.585C356.283 155.776 356.232 155.983 356.224 156.194H355.211C355.331 154.816 356.31 153.859 357.948 153.859C359.296 153.859 360.481 154.407 360.481 155.84C360.483 156.237 360.362 156.624 360.134 156.948C359.906 157.272 359.583 157.517 359.209 157.649C360.373 158.028 360.696 158.781 360.696 159.609C360.696 161.181 359.37 161.947 357.874 161.947C356.027 161.947 355.211 160.806 355.104 159.486H356.116C356.233 160.446 356.784 161.113 357.892 161.113C358.902 161.138 359.634 160.609 359.634 159.63Z" fill="#1A1A1A"/>
<path d="M361.641 161.816V160.586H362.872V161.816H361.641Z" fill="#1A1A1A"/>
<path d="M368.502 158.121C368.289 158.473 367.984 158.761 367.62 158.953C367.255 159.145 366.845 159.234 366.434 159.21C364.99 159.21 363.922 158.133 363.922 156.549C363.917 156.19 363.985 155.833 364.122 155.501C364.259 155.169 364.462 154.869 364.72 154.618C364.977 154.367 365.283 154.172 365.618 154.043C365.954 153.914 366.312 153.855 366.671 153.869C368.619 153.869 369.515 155.226 369.515 157.638C369.515 159.834 368.705 161.944 366.465 161.944C364.926 161.944 364.224 160.985 364.051 159.994H365.119C365.249 160.695 365.766 161.126 366.572 161.126C367.779 161.138 368.447 159.933 368.502 158.121ZM366.689 154.688C365.677 154.688 364.978 155.441 364.978 156.506C364.978 157.57 365.677 158.351 366.68 158.351C367.683 158.351 368.382 157.576 368.382 156.506C368.382 155.435 367.714 154.688 366.689 154.688Z" fill="#1A1A1A"/>
<path d="M377.209 161.816H376.249V157.165L374.402 161.816H373.7L371.854 157.229V161.816H370.896V156.023H372.297L374.079 160.481L375.815 156.023H377.215L377.209 161.816Z" fill="#1A1A1A"/>
<path d="M381.398 153.79C381.398 154.663 380.6 155.481 379.221 156.417H381.496V157.097H378.273V156.46C379.708 155.331 380.579 154.565 380.579 153.845C380.585 153.758 380.572 153.672 380.541 153.59C380.511 153.509 380.462 153.436 380.4 153.375C380.338 153.315 380.264 153.268 380.182 153.239C380.1 153.211 380.013 153.2 379.926 153.208C379.529 153.208 379.151 153.467 379.163 154.131H378.375C378.375 153.227 378.991 152.633 379.96 152.633C380.763 152.627 381.398 153.048 381.398 153.79Z" fill="#1A1A1A"/>
<path d="M227.713 168.393C227.368 170.115 226.023 171.02 224.327 171.02C222.086 171.02 220.781 169.331 220.781 166.962C220.781 164.593 222.216 162.932 224.413 162.932C225.182 162.902 225.937 163.152 226.535 163.635C227.134 164.119 227.536 164.804 227.667 165.562H226.602C226.495 165.057 226.21 164.607 225.798 164.294C225.387 163.981 224.877 163.826 224.361 163.858C222.979 163.858 221.899 164.938 221.899 166.962C221.899 168.986 222.936 170.094 224.389 170.094C225.638 170.094 226.392 169.395 226.642 168.393H227.713Z" fill="#1A1A1A"/>
<path d="M228.055 170.878L231.133 163.07H232.127L229.049 170.878H228.055Z" fill="#1A1A1A"/>
<path d="M233.307 171.029V170.081H234.027C234.214 170.094 234.402 170.051 234.565 169.96C234.729 169.868 234.863 169.731 234.95 169.564L235.101 169.284L232.189 163.07H233.411L235.686 168.143L237.776 163.07H239.007L236.129 169.595C235.711 170.499 235.043 171.029 234.138 171.029H233.307Z" fill="#1A1A1A"/>
<path d="M221.047 181.24C221.047 179.948 220.142 179.395 219.292 179.395C218.985 179.382 218.681 179.455 218.414 179.608C218.147 179.76 217.929 179.985 217.784 180.256L216.796 180.191L217.304 175.992H221.786V176.915H218.092L217.821 179.136C218.286 178.732 218.886 178.52 219.502 178.542C220.871 178.542 222.066 179.511 222.066 181.234C222.066 183.021 220.742 183.947 219.296 183.947C217.498 183.947 216.658 182.806 216.525 181.548H217.538C217.701 182.538 218.218 183.129 219.305 183.129C220.24 183.123 221.047 182.446 221.047 181.24Z" fill="#1A1A1A"/>
<path d="M223.07 183.801V182.57H224.302V183.801H223.07Z" fill="#1A1A1A"/>
<path d="M230.672 177.845C230.674 178.215 230.574 178.578 230.384 178.895C230.194 179.212 229.921 179.472 229.594 179.645C229.991 179.793 230.331 180.061 230.567 180.413C230.803 180.764 230.922 181.181 230.909 181.604C230.909 183.099 229.659 183.939 228.065 183.939C226.47 183.939 225.208 183.099 225.208 181.604C225.193 181.179 225.313 180.76 225.552 180.408C225.79 180.056 226.134 179.788 226.535 179.645C226.208 179.472 225.935 179.212 225.745 178.895C225.555 178.578 225.456 178.215 225.458 177.845C225.458 176.691 226.47 175.852 228.065 175.852C229.659 175.852 230.672 176.691 230.672 177.845ZM226.255 181.604C226.255 182.527 226.944 183.121 228.065 183.121C229.185 183.121 229.874 182.505 229.874 181.604C229.874 180.703 229.173 180.066 228.065 180.066C226.957 180.066 226.255 180.687 226.255 181.604ZM228.065 176.682C227.074 176.682 226.436 177.199 226.436 177.974C226.436 178.749 227.083 179.343 228.065 179.343C229.046 179.343 229.681 178.762 229.681 177.974C229.681 177.187 229.043 176.67 228.065 176.67V176.682Z" fill="#1A1A1A"/>
<path d="M238.596 183.8H237.636V179.149L235.789 183.8H235.087L233.24 179.214V183.8H232.283V178.008H233.684L235.481 182.465L237.217 178.008H238.618L238.596 183.8Z" fill="#1A1A1A"/>
<path d="M242.786 175.779C242.786 176.649 241.989 177.471 240.61 178.406H242.885V179.086H239.662V178.449C241.096 177.317 241.967 176.554 241.967 175.831C241.974 175.743 241.96 175.655 241.928 175.573C241.896 175.491 241.847 175.417 241.783 175.357C241.719 175.296 241.643 175.251 241.559 175.223C241.476 175.195 241.387 175.187 241.3 175.197C240.903 175.197 240.524 175.456 240.536 176.12H239.748C239.748 175.216 240.364 174.625 241.333 174.625C242.152 174.616 242.786 175.034 242.786 175.779Z" fill="#1A1A1A"/>
<path d="M335.935 236.536H335.116V240.089H334.018V232.281H335.116V235.588H335.907L338.539 232.281H339.863L336.846 235.973L339.97 240.086H338.656L335.935 236.536Z" fill="#1A1A1A"/>
<path d="M340.296 241.157H340.693C341.339 241.157 341.653 241.114 341.924 240.209L341.967 240.089L339.877 234.297H340.963L342.441 238.764L343.872 234.297H344.897L342.829 240.339C342.398 241.588 342.118 241.975 340.813 241.975H340.308L340.296 241.157Z" fill="#1A1A1A"/>
<path d="M348.309 237.062L350.464 240.089H349.288L347.715 237.881L346.152 240.089H345.031L347.167 237.105L345.161 234.297H346.336L347.746 236.287L349.171 234.297H350.27L348.309 237.062Z" fill="#1A1A1A"/>
<path d="M355.261 240.089V237.558H352.393V240.089H351.414V234.297H352.393V236.709H355.261V234.297H356.231V240.089H355.261Z" fill="#1A1A1A"/>
<path d="M362.184 240.089H361.202V238.022H360.18C360.126 238.027 360.071 238.027 360.017 238.022L358.444 240.089H357.213L358.967 237.751C358.605 237.652 358.286 237.433 358.063 237.131C357.84 236.828 357.725 236.46 357.736 236.084C357.736 234.888 358.555 234.297 359.891 234.297H362.165L362.184 240.089ZM359.965 235.146C359.241 235.146 358.758 235.454 358.758 236.149C358.758 236.933 359.374 237.182 360.051 237.182H361.202V235.146H359.965Z" fill="#1A1A1A"/>
<path d="M363.477 237.599V236.676H366.902V237.599H363.477Z" fill="#1A1A1A"/>
<path d="M372.051 240.089V237.558H369.185V240.089H368.203V234.297H369.185V236.709H372.051V234.297H373.029V240.089H372.051Z" fill="#1A1A1A"/>
<path d="M378.668 235.718L375.673 240.089H374.697V234.297H375.679V238.668L378.674 234.297H379.653V240.089H378.668V235.718Z" fill="#1A1A1A"/>
<path d="M388.447 240.089H381.303V234.297H382.285V239.253H384.384V234.297H385.366V239.253H387.465V234.297H388.447V240.089Z" fill="#1A1A1A"/>
<path d="M389.709 238.563C389.709 237.194 391.248 236.785 393.63 236.527V236.388C393.63 235.321 393.049 234.976 392.316 234.976C391.497 234.976 391.036 235.407 390.992 236.13H389.98C390.066 234.881 391.186 234.18 392.307 234.18C393.91 234.18 394.621 234.933 394.612 236.57V237.905C394.583 238.637 394.633 239.371 394.763 240.092H393.772C393.73 239.828 393.706 239.562 393.698 239.295C393.341 239.911 392.75 240.218 391.716 240.218C390.614 240.234 389.709 239.631 389.709 238.563ZM393.71 237.302C391.931 237.474 390.802 237.745 390.802 238.533C390.802 239.083 391.22 239.455 391.922 239.455C392.845 239.455 393.71 239.034 393.71 237.665V237.302Z" fill="#1A1A1A"/>
<path d="M355.502 250.446C355.502 249.154 354.597 248.6 353.747 248.6C353.44 248.587 353.136 248.661 352.869 248.813C352.602 248.966 352.384 249.191 352.239 249.461L351.257 249.406L351.765 245.207H356.246V246.13H352.553L352.282 248.348C352.747 247.944 353.347 247.732 353.963 247.754C355.332 247.754 356.527 248.723 356.527 250.446C356.527 252.236 355.203 253.162 353.756 253.162C351.959 253.162 351.119 252.021 350.986 250.76H351.999C352.162 251.75 352.679 252.344 353.766 252.344C354.692 252.332 355.502 251.652 355.502 250.446Z" fill="#1A1A1A"/>
<path d="M357.521 253.012V251.781H358.753V253.012H357.521Z" fill="#1A1A1A"/>
<path d="M362.481 253.15C360.404 253.15 359.443 251.566 359.443 249.099C359.443 246.631 360.404 245.062 362.481 245.062C364.559 245.062 365.519 246.634 365.519 249.099C365.519 251.563 364.562 253.15 362.481 253.15ZM362.481 245.881C361.25 245.881 360.49 246.936 360.49 249.099C360.49 251.261 361.244 252.332 362.481 252.332C363.719 252.332 364.476 251.286 364.476 249.099C364.476 246.911 363.7 245.881 362.481 245.881Z" fill="#1A1A1A"/>
<path d="M373.201 253.011H372.244V248.36L370.379 253.011H369.68L367.833 248.425V253.011H366.873V247.219H368.273L370.071 251.676L371.804 247.219H373.204L373.201 253.011Z" fill="#1A1A1A"/>
<path d="M377.392 244.989C377.392 245.862 376.594 246.681 375.216 247.616H377.487V248.296H374.268V247.659C375.699 246.53 376.573 245.764 376.573 245.044C376.576 244.957 376.561 244.87 376.528 244.789C376.496 244.708 376.446 244.635 376.383 244.575C376.32 244.515 376.244 244.469 376.162 244.44C376.08 244.411 375.992 244.4 375.905 244.407C375.505 244.407 375.129 244.666 375.139 245.33H374.354C374.354 244.426 374.969 243.832 375.936 243.832C376.755 243.826 377.392 244.247 377.392 244.989Z" fill="#1A1A1A"/>
<path d="M348.78 409.712C346.527 409.712 345.117 408.024 345.117 405.664C345.117 403.305 346.527 401.625 348.78 401.625C351.033 401.625 352.443 403.305 352.443 405.664C352.443 408.024 351.03 409.712 348.78 409.712ZM348.78 408.79C350.202 408.79 351.322 407.682 351.322 405.667C351.322 403.652 350.202 402.554 348.78 402.554C347.358 402.554 346.238 403.652 346.238 405.667C346.238 407.682 347.358 408.787 348.78 408.787V408.79Z" fill="#1A1A1A"/>
<path d="M358.876 406.858C358.876 408.719 357.682 409.71 356.26 409.71C354.761 409.71 353.533 408.667 353.533 406.557V405.889C353.567 403.8 354.257 402.582 356.583 402.117L358.489 401.742V402.613L356.642 403.013C355.232 403.32 354.552 403.853 354.413 405.295C354.599 404.922 354.889 404.611 355.249 404.4C355.609 404.19 356.022 404.089 356.439 404.111C357.747 404.111 358.876 405.028 358.876 406.858ZM357.833 406.88C357.833 405.609 357.165 404.963 356.269 404.963C355.374 404.963 354.589 405.578 354.589 406.867C354.589 408.098 355.278 408.861 356.26 408.861C357.242 408.861 357.833 408.135 357.833 406.88Z" fill="#1A1A1A"/>
<path d="M367.978 410.964H367.054V409.577H360.027V403.781H361.006V408.725H363.108V403.781H364.087V408.725H366.189V403.781H367.168V408.725H367.978V410.964Z" fill="#1A1A1A"/>
<path d="M368.572 408.048C368.572 406.679 370.111 406.27 372.494 406.011V405.873C372.494 404.805 371.912 404.461 371.179 404.461C370.361 404.461 369.899 404.892 369.856 405.614H368.846C368.932 404.365 370.053 403.664 371.173 403.664C372.777 403.664 373.488 404.418 373.478 406.054V407.389C373.449 408.122 373.5 408.855 373.629 409.577H372.638C372.597 409.313 372.572 409.047 372.564 408.78C372.207 409.395 371.616 409.703 370.582 409.703C369.477 409.715 368.572 409.112 368.572 408.048ZM372.574 406.786C370.795 406.959 369.665 407.229 369.665 408.017C369.665 408.565 370.084 408.94 370.785 408.94C371.709 408.94 372.574 408.521 372.574 407.153V406.786Z" fill="#1A1A1A"/>
<path d="M379.278 409.577H378.3V407.525H377.275C377.221 407.53 377.168 407.53 377.115 407.525L375.542 409.593H374.311L376.068 407.255C375.706 407.155 375.387 406.936 375.164 406.634C374.941 406.331 374.825 405.963 374.837 405.587C374.837 404.391 375.656 403.797 376.991 403.797H379.263L379.278 409.577ZM377.059 404.634C376.339 404.634 375.853 404.941 375.853 405.636C375.853 406.421 376.468 406.67 377.145 406.67H378.3V404.634H377.059Z" fill="#1A1A1A"/>
<path d="M385.226 407.002H384.484V409.577H383.49V403.781H384.484V406.153H385.205L387.051 403.781H388.215L386.026 406.519L388.44 409.577H387.221L385.226 407.002Z" fill="#1A1A1A"/>
<path d="M394.288 406.698C394.288 408.799 392.854 409.713 391.518 409.713C390.182 409.713 388.748 408.79 388.748 406.698C388.748 404.606 390.182 403.684 391.518 403.684C392.854 403.684 394.288 404.597 394.288 406.698ZM391.518 408.852C392.411 408.852 393.251 408.184 393.251 406.698C393.251 405.16 392.411 404.545 391.518 404.545C390.626 404.545 389.782 405.117 389.782 406.698C389.782 408.279 390.613 408.852 391.509 408.852H391.518Z" fill="#1A1A1A"/>
<path d="M401.847 409.577H400.887V404.926L399.024 409.577H398.323L396.476 404.99V409.577H395.516V403.781H396.916L398.717 408.242L400.453 403.781H401.853L401.847 409.577Z" fill="#1A1A1A"/>
<path d="M407.351 409.577V407.045H404.486V409.577H403.504V403.781H404.486V406.196H407.351V403.781H408.333V409.577H407.351Z" fill="#1A1A1A"/>
<path d="M409.594 408.048C409.594 406.679 411.133 406.27 413.515 406.011V405.873C413.515 404.805 412.933 404.461 412.201 404.461C411.382 404.461 410.917 404.892 410.874 405.614H409.862C409.948 404.365 411.068 403.664 412.188 403.664C413.795 403.664 414.506 404.418 414.494 406.054V407.389C414.462 408.122 414.512 408.856 414.645 409.577H413.654C413.611 409.313 413.585 409.047 413.577 408.78C413.223 409.395 412.629 409.703 411.594 409.703C410.499 409.715 409.594 409.112 409.594 408.048ZM413.595 406.786C411.819 406.959 410.686 407.229 410.686 408.017C410.686 408.565 411.108 408.94 411.807 408.94C412.73 408.94 413.595 408.521 413.595 407.153V406.786Z" fill="#1A1A1A"/>
<path d="M418.012 404.633V409.577H417.033V404.633H415.051V403.781H419.994V404.633H418.012Z" fill="#1A1A1A"/>
<path d="M420.283 408.048C420.283 406.679 421.822 406.27 424.204 406.011V405.873C424.204 404.805 423.623 404.461 422.89 404.461C422.071 404.461 421.607 404.892 421.564 405.614H420.557C420.643 404.365 421.764 403.664 422.884 403.664C424.491 403.664 425.202 404.418 425.189 406.054V407.389C425.157 408.122 425.208 408.856 425.34 409.577H424.349C424.306 409.313 424.281 409.047 424.272 408.78C423.918 409.395 423.324 409.703 422.29 409.703C421.188 409.715 420.283 409.112 420.283 408.048ZM424.284 406.786C422.509 406.959 421.376 407.229 421.376 408.017C421.376 408.565 421.798 408.94 422.496 408.94C423.42 408.94 424.284 408.521 424.284 407.153V406.786Z" fill="#1A1A1A"/>
<path d="M371.394 422.495V416.389H369.584V415.721C370.695 415.687 371.286 415.527 371.708 414.688H372.376V422.495H371.394Z" fill="#1A1A1A"/>
<path d="M379.895 420.563H378.464V422.492H377.46V420.563H373.582V419.64L377.448 414.688H378.451V419.64H379.883L379.895 420.563ZM374.681 419.64H377.46V416.032L374.681 419.64Z" fill="#1A1A1A"/>
<path d="M380.736 422.496V421.266H381.968V422.496H380.736Z" fill="#1A1A1A"/>
<path d="M385.686 422.638C383.606 422.638 382.648 421.057 382.648 418.59C382.648 416.123 383.606 414.551 385.686 414.551C387.767 414.551 388.724 416.126 388.724 418.59C388.724 421.054 387.764 422.638 385.686 422.638ZM385.686 415.369C384.455 415.369 383.692 416.424 383.692 418.59C383.692 420.756 384.446 421.82 385.686 421.82C386.927 421.82 387.681 420.777 387.681 418.59C387.681 416.403 386.902 415.369 385.686 415.369Z" fill="#1A1A1A"/>
<path d="M396.417 422.491H395.457V417.84L393.595 422.491H392.893L391.046 417.904V422.491H390.086V416.695H391.486L393.284 421.156L395.02 416.695H396.42L396.417 422.491Z" fill="#1A1A1A"/>
<path d="M400.606 414.47C400.606 415.341 399.809 416.159 398.43 417.097H400.704V417.777H397.473V417.14C398.907 416.008 399.778 415.245 399.778 414.522C399.784 414.435 399.771 414.347 399.739 414.265C399.707 414.183 399.657 414.109 399.593 414.048C399.53 413.988 399.453 413.942 399.37 413.914C399.286 413.887 399.197 413.878 399.11 413.889C398.713 413.889 398.334 414.147 398.347 414.812H397.559C397.559 413.907 398.174 413.317 399.144 413.317C399.972 413.307 400.606 413.726 400.606 414.47Z" fill="#1A1A1A"/>
</g>
<defs>
<clipPath id="clip0_1875_11677">
<rect width="438" height="518" fill="white" transform="translate(135 51)"/>
</clipPath>
</defs>
</svg>
