<svg width="708" height="620" viewBox="0 0 708 620" fill="none" xmlns="http://www.w3.org/2000/svg">
<g clip-path="url(#clip0_1875_16063)">
<path d="M188.141 103.812V120.273H290.499V103.812H188.141Z" stroke="#242424" stroke-width="2.1038" stroke-miterlimit="10" stroke-linecap="round" stroke-linejoin="round"/>
<path d="M196.75 108.475V113.719H203.761V108.475H196.75Z" stroke="#242424" stroke-width="2.1038" stroke-miterlimit="10" stroke-linecap="round" stroke-linejoin="round"/>
<path d="M203.761 113.719C203.761 114.925 202.19 115.878 200.255 115.878C198.32 115.878 196.75 114.897 196.75 113.719" stroke="#242424" stroke-width="2.1038" stroke-miterlimit="10" stroke-linecap="round" stroke-linejoin="round"/>
<path d="M200.906 115.85V113.719" stroke="#242424" stroke-width="2.1038" stroke-miterlimit="10" stroke-linecap="round" stroke-linejoin="round"/>
<path d="M203.317 114.785H197.203" stroke="#242424" stroke-width="2.1038" stroke-miterlimit="10" stroke-linecap="round" stroke-linejoin="round"/>
<path d="M198.234 115.485H202.273V113.719" stroke="#242424" stroke-width="2.1038" stroke-miterlimit="10" stroke-linecap="round" stroke-linejoin="round"/>
<path d="M199.531 113.719V115.85" stroke="#242424" stroke-width="2.1038" stroke-miterlimit="10" stroke-linecap="round" stroke-linejoin="round"/>
<path d="M198.406 113.719V115.542" stroke="#242424" stroke-width="2.1038" stroke-miterlimit="10" stroke-linecap="round" stroke-linejoin="round"/>
<path d="M194.287 116.047L192.688 117.169" stroke="#242424" stroke-width="2.1038" stroke-miterlimit="10" stroke-linecap="round" stroke-linejoin="round"/>
<path d="M196.669 118.039C196.669 118.039 195.07 119.806 193.5 122.694" stroke="#242424" stroke-width="2.1038" stroke-miterlimit="10" stroke-linecap="round" stroke-linejoin="round"/>
<path d="M198.406 119.805V121.796" stroke="#242424" stroke-width="2.1038" stroke-miterlimit="10" stroke-linecap="round" stroke-linejoin="round"/>
<path d="M202.078 119.582C202.078 119.582 203.873 122.611 204.742 123.648" stroke="#242424" stroke-width="2.1038" stroke-miterlimit="10" stroke-linecap="round" stroke-linejoin="round"/>
<path d="M205.195 117.395C205.195 117.395 208.196 120.031 209.486 121.601" stroke="#242424" stroke-width="2.1038" stroke-miterlimit="10" stroke-linecap="round" stroke-linejoin="round"/>
<path d="M206.766 114.984C206.766 114.984 207.439 115.181 208.729 115.489" stroke="#242424" stroke-width="2.1038" stroke-miterlimit="10" stroke-linecap="round" stroke-linejoin="round"/>
<path d="M275.594 108.479V113.723H282.605V108.479H275.594Z" stroke="#242424" stroke-width="2.1038" stroke-miterlimit="10" stroke-linecap="round" stroke-linejoin="round"/>
<path d="M282.589 113.723C282.589 114.929 281.019 115.882 279.084 115.882C277.149 115.882 275.578 114.9 275.578 113.723" stroke="#242424" stroke-width="2.1038" stroke-miterlimit="10" stroke-linecap="round" stroke-linejoin="round"/>
<path d="M279.734 115.854V113.723" stroke="#242424" stroke-width="2.1038" stroke-miterlimit="10" stroke-linecap="round" stroke-linejoin="round"/>
<path d="M282.145 114.789H276.031" stroke="#242424" stroke-width="2.1038" stroke-miterlimit="10" stroke-linecap="round" stroke-linejoin="round"/>
<path d="M277.07 115.489H281.109V113.723" stroke="#242424" stroke-width="2.1038" stroke-miterlimit="10" stroke-linecap="round" stroke-linejoin="round"/>
<path d="M278.359 113.723V115.854" stroke="#242424" stroke-width="2.1038" stroke-miterlimit="10" stroke-linecap="round" stroke-linejoin="round"/>
<path d="M277.234 113.723V115.545" stroke="#242424" stroke-width="2.1038" stroke-miterlimit="10" stroke-linecap="round" stroke-linejoin="round"/>
<path d="M273.118 116.051L271.547 117.173" stroke="#242424" stroke-width="2.1038" stroke-miterlimit="10" stroke-linecap="round" stroke-linejoin="round"/>
<path d="M275.497 118.043C275.497 118.043 273.899 119.81 272.328 122.698" stroke="#242424" stroke-width="2.1038" stroke-miterlimit="10" stroke-linecap="round" stroke-linejoin="round"/>
<path d="M277.234 119.809V121.8" stroke="#242424" stroke-width="2.1038" stroke-miterlimit="10" stroke-linecap="round" stroke-linejoin="round"/>
<path d="M280.914 119.582C280.914 119.582 282.709 122.611 283.578 123.648" stroke="#242424" stroke-width="2.1038" stroke-miterlimit="10" stroke-linecap="round" stroke-linejoin="round"/>
<path d="M284.031 117.398C284.031 117.398 287.032 120.035 288.322 121.605" stroke="#242424" stroke-width="2.1038" stroke-miterlimit="10" stroke-linecap="round" stroke-linejoin="round"/>
<path d="M285.625 114.984C285.625 114.984 286.298 115.181 287.588 115.489" stroke="#242424" stroke-width="2.1038" stroke-miterlimit="10" stroke-linecap="round" stroke-linejoin="round"/>
<path d="M228.672 109.433C230.13 107.274 234 105.703 238.543 105.703C243.03 105.703 246.872 107.217 248.358 109.349" stroke="#242424" stroke-width="2.1038" stroke-miterlimit="10" stroke-linecap="round" stroke-linejoin="round"/>
<path d="M248.834 112.434C247.908 115.042 243.646 117.005 238.542 117.005C233.438 117.005 229.203 115.042 228.25 112.462" stroke="#242424" stroke-width="2.1038" stroke-miterlimit="10" stroke-linecap="round" stroke-linejoin="round"/>
<path d="M267.344 109.879V112.01C267.344 112.178 267.204 112.319 267.036 112.319H212.519C212.351 112.319 212.211 112.178 212.211 112.01V109.879C212.211 109.711 212.351 109.57 212.519 109.57H267.008C267.204 109.57 267.344 109.711 267.344 109.879Z" stroke="#242424" stroke-width="2.1038" stroke-miterlimit="10" stroke-linecap="round" stroke-linejoin="round"/>
<path d="M453.68 379.103V414.101H536.857V379.103H453.68Z" stroke="#242424" stroke-width="2.1038" stroke-miterlimit="10" stroke-linecap="round" stroke-linejoin="round"/>
<path d="M457.164 396.847H534.368" stroke="#242424" stroke-width="2.1038" stroke-miterlimit="10" stroke-linecap="round" stroke-linejoin="round"/>
<path d="M530.219 408.679L534.594 384.253" stroke="#242424" stroke-width="2.1038" stroke-miterlimit="10" stroke-linecap="round" stroke-linejoin="round"/>
<path d="M527.922 405.232L528.287 382.937" stroke="#242424" stroke-width="2.1038" stroke-miterlimit="10" stroke-linecap="round" stroke-linejoin="round"/>
<path d="M524.529 410.166C524.529 410.166 523.688 394.433 521.641 384.253" stroke="#242424" stroke-width="2.1038" stroke-miterlimit="10" stroke-linecap="round" stroke-linejoin="round"/>
<path d="M523.436 405.509C523.436 405.509 523.268 402.116 522.734 398.863" stroke="#242424" stroke-width="2.1038" stroke-miterlimit="10" stroke-linecap="round" stroke-linejoin="round"/>
<path d="M522.203 394.91L522.062 394.097" stroke="#242424" stroke-width="2.1038" stroke-miterlimit="10" stroke-linecap="round" stroke-linejoin="round"/>
<path d="M529.07 392.332V391.519" stroke="#242424" stroke-width="2.1038" stroke-miterlimit="10" stroke-linecap="round" stroke-linejoin="round"/>
<path d="M529.07 388.713V384.871" stroke="#242424" stroke-width="2.1038" stroke-miterlimit="10" stroke-linecap="round" stroke-linejoin="round"/>
<path d="M518.746 383.273L517.203 411.373" stroke="#242424" stroke-width="2.1038" stroke-miterlimit="10" stroke-linecap="round" stroke-linejoin="round"/>
<path d="M513.064 410.168L512.25 386.835" stroke="#242424" stroke-width="2.1038" stroke-miterlimit="10" stroke-linecap="round" stroke-linejoin="round"/>
<path d="M513.362 394.938L513.25 391.937" stroke="#242424" stroke-width="2.1038" stroke-miterlimit="10" stroke-linecap="round" stroke-linejoin="round"/>
<path d="M464.794 408.679L461.148 382.375" stroke="#242424" stroke-width="2.1038" stroke-miterlimit="10" stroke-linecap="round" stroke-linejoin="round"/>
<path d="M458.68 384.562V409.016" stroke="#242424" stroke-width="2.1038" stroke-miterlimit="10" stroke-linecap="round" stroke-linejoin="round"/>
<path d="M463.228 390.955L462.695 387.562" stroke="#242424" stroke-width="2.1038" stroke-miterlimit="10" stroke-linecap="round" stroke-linejoin="round"/>
<path d="M462.356 385.797L462.188 385.152" stroke="#242424" stroke-width="2.1038" stroke-miterlimit="10" stroke-linecap="round" stroke-linejoin="round"/>
<path d="M508.989 408.679L505.344 382.375" stroke="#242424" stroke-width="2.1038" stroke-miterlimit="10" stroke-linecap="round" stroke-linejoin="round"/>
<path d="M502.875 384.562V409.016" stroke="#242424" stroke-width="2.1038" stroke-miterlimit="10" stroke-linecap="round" stroke-linejoin="round"/>
<path d="M494.242 411.373L499.627 382.937" stroke="#242424" stroke-width="2.1038" stroke-miterlimit="10" stroke-linecap="round" stroke-linejoin="round"/>
<path d="M492.59 383.273L491.047 411.373" stroke="#242424" stroke-width="2.1038" stroke-miterlimit="10" stroke-linecap="round" stroke-linejoin="round"/>
<path d="M486.872 410.168L486.086 386.835" stroke="#242424" stroke-width="2.1038" stroke-miterlimit="10" stroke-linecap="round" stroke-linejoin="round"/>
<path d="M482.098 409.326L480.359 382.937" stroke="#242424" stroke-width="2.1038" stroke-miterlimit="10" stroke-linecap="round" stroke-linejoin="round"/>
<path d="M477.661 388.125L477.016 408.063" stroke="#242424" stroke-width="2.1038" stroke-miterlimit="10" stroke-linecap="round" stroke-linejoin="round"/>
<path d="M470.008 408.679L474.383 384.253" stroke="#242424" stroke-width="2.1038" stroke-miterlimit="10" stroke-linecap="round" stroke-linejoin="round"/>
<path d="M467.711 405.232L468.076 382.937" stroke="#242424" stroke-width="2.1038" stroke-miterlimit="10" stroke-linecap="round" stroke-linejoin="round"/>
<path d="M468.859 392.332V391.519" stroke="#242424" stroke-width="2.1038" stroke-miterlimit="10" stroke-linecap="round" stroke-linejoin="round"/>
<path d="M468.859 388.713V384.871" stroke="#242424" stroke-width="2.1038" stroke-miterlimit="10" stroke-linecap="round" stroke-linejoin="round"/>
<path d="M487.178 394.938L487.094 391.937" stroke="#242424" stroke-width="2.1038" stroke-miterlimit="10" stroke-linecap="round" stroke-linejoin="round"/>
<path d="M495.922 408.065L496.202 406.859" stroke="#242424" stroke-width="2.1038" stroke-miterlimit="10" stroke-linecap="round" stroke-linejoin="round"/>
<path d="M496.516 405.258L497.666 400.378" stroke="#242424" stroke-width="2.1038" stroke-miterlimit="10" stroke-linecap="round" stroke-linejoin="round"/>
<path d="M507.427 390.955L506.922 387.562" stroke="#242424" stroke-width="2.1038" stroke-miterlimit="10" stroke-linecap="round" stroke-linejoin="round"/>
<path d="M506.554 385.797L506.414 385.152" stroke="#242424" stroke-width="2.1038" stroke-miterlimit="10" stroke-linecap="round" stroke-linejoin="round"/>
<path d="M338.453 150.797C339.042 154.078 340.108 157.948 345.38 158.649" stroke="#242424" stroke-width="2.1038" stroke-miterlimit="10" stroke-linecap="round" stroke-linejoin="round"/>
<path d="M337.758 155.48C338.235 156.406 338.936 158.369 341.544 159.098" stroke="#242424" stroke-width="2.1038" stroke-miterlimit="10" stroke-linecap="round" stroke-linejoin="round"/>
<path d="M380.972 177.914H353.125V181.139H380.972V177.914Z" stroke="#242424" stroke-width="2.1038" stroke-miterlimit="10" stroke-linecap="round" stroke-linejoin="round"/>
<path d="M357.579 176.146H376.536C379.396 176.146 381.724 173.819 381.724 170.958V152.141C381.724 149.281 379.396 146.953 376.536 146.953H357.579C354.718 146.953 352.391 149.281 352.391 152.141V170.958C352.391 173.847 354.69 176.146 357.579 176.146Z" stroke="#242424" stroke-width="2.1038" stroke-miterlimit="10" stroke-linecap="round" stroke-linejoin="round"/>
<path d="M317.57 116.418V144.91H320.739V116.418H317.57Z" stroke="#242424" stroke-width="2.1038" stroke-miterlimit="10" stroke-linecap="round" stroke-linejoin="round"/>
<path d="M322.438 140.475V120.844C322.438 117.984 324.765 115.656 327.626 115.656H345.742C348.602 115.656 350.93 117.984 350.93 120.844V140.475C350.93 143.335 348.602 145.663 345.742 145.663H327.626C324.737 145.663 322.438 143.335 322.438 140.475Z" stroke="#242424" stroke-width="2.1038" stroke-miterlimit="10" stroke-linecap="round" stroke-linejoin="round"/>
<path d="M315.797 119.301V130.939" stroke="#242424" stroke-width="2.1038" stroke-miterlimit="10" stroke-linecap="round" stroke-linejoin="round"/>
<path d="M315.797 133.828V135.931" stroke="#242424" stroke-width="2.1038" stroke-miterlimit="10" stroke-linecap="round" stroke-linejoin="round"/>
<path d="M394.796 111.647V150.263C394.796 154.302 391.515 157.583 387.476 157.583H347.991C343.953 157.583 340.672 154.302 340.672 150.263V111.647C340.672 107.609 343.953 104.328 347.991 104.328H387.476C391.515 104.328 394.796 107.609 394.796 111.647Z" stroke="#242424" stroke-width="2.1038" stroke-miterlimit="10" stroke-linecap="round" stroke-linejoin="round"/>
<path d="M341.962 244.938C341.962 244.938 344.178 255.903 341.794 259.015C339.607 261.876 333.97 263.586 333.97 263.586C333.97 263.586 333.717 256.463 335.905 253.042C338.064 249.593 338.064 248.892 341.962 244.938Z" stroke="#242424" stroke-width="2.1038" stroke-miterlimit="10" stroke-linecap="round" stroke-linejoin="round"/>
<path d="M333.406 264.457C333.406 264.457 338.678 260.503 341.315 259.83C343.923 259.157 347.989 260.587 349.335 260.98C351.018 261.456 354.355 261.232 354.355 261.232C354.355 261.232 351.074 264.934 349.083 265.523C347.877 265.887 345.689 266.448 343.67 265.943" stroke="#242424" stroke-width="2.1038" stroke-miterlimit="10" stroke-linecap="round" stroke-linejoin="round"/>
<path d="M333.07 264.485C333.07 264.485 338.595 263.56 342.661 265.411C346.727 267.262 349.812 271.328 349.812 271.328C349.812 271.328 346.98 272.365 344.68 272.169C341.708 271.945 338.006 268.748 338.006 268.748L333.07 264.485Z" stroke="#242424" stroke-width="2.1038" stroke-miterlimit="10" stroke-linecap="round" stroke-linejoin="round"/>
<path d="M325.047 247.406C325.047 247.406 333.376 251.276 333.937 255.343C334.498 259.409 333.965 263.026 333.796 263.335C333.628 263.643 333.404 264.176 333.404 264.176C333.404 264.176 329.169 260.362 327.711 257.39C326.253 254.417 325.72 252.37 325.047 247.406Z" stroke="#242424" stroke-width="2.1038" stroke-miterlimit="10" stroke-linecap="round" stroke-linejoin="round"/>
<path d="M332.648 263.669C332.648 263.669 322.496 266.165 314.812 254.387C314.812 254.387 321.767 253.826 324.684 255.789C327.628 257.78 329.255 259.967 332.648 263.669Z" stroke="#242424" stroke-width="2.1038" stroke-miterlimit="10" stroke-linecap="round" stroke-linejoin="round"/>
<path d="M321.688 279.095C334.363 275.982 333.073 264.484 333.073 264.484C333.073 264.484 322.585 268.046 321.688 279.095Z" stroke="#242424" stroke-width="2.1038" stroke-miterlimit="10" stroke-linecap="round" stroke-linejoin="round"/>
<path d="M327.128 263.557C327.128 263.557 324.52 263.024 319.557 264.706C314.565 266.389 313.219 268.128 313.219 268.128C318.042 270.792 326.035 269.25 326.035 269.25" stroke="#242424" stroke-width="2.1038" stroke-miterlimit="10" stroke-linecap="round" stroke-linejoin="round"/>
<path d="M331.023 265.41L333.099 264.204L331.248 263.867" stroke="#242424" stroke-width="2.1038" stroke-miterlimit="10" stroke-linecap="round" stroke-linejoin="round"/>
<path d="M340.674 270.652C344.208 274.774 343.563 280.074 343.563 280.074C343.563 280.074 339.749 279.205 336.355 274.774C332.962 270.343 333.102 264.734 333.102 264.734" stroke="#242424" stroke-width="2.1038" stroke-miterlimit="10" stroke-linecap="round" stroke-linejoin="round"/>
<path d="M493.953 117.702V102.699L401.494 102.699V117.702L493.953 117.702Z" stroke="#242424" stroke-width="2.1038" stroke-linecap="round" stroke-linejoin="round"/>
<path d="M403.687 118.63C403.379 122.725 403.239 140.42 422.785 140.981H422.897C442.443 140.42 442.303 122.725 441.995 118.63C441.967 118.154 441.574 117.789 441.097 117.789H404.585C404.108 117.789 403.715 118.154 403.687 118.63Z" stroke="#242424" stroke-width="2.1038" stroke-linecap="round" stroke-linejoin="round"/>
<path d="M421.91 122.5C419.526 122.5 413.16 122.5 410.721 122.5C409.711 122.5 408.477 122.893 408.028 124.267C407.58 125.697 407.636 130.324 410.889 133.689C413.693 136.578 417.928 138.513 422.807 138.513C427.687 138.513 431.922 136.578 434.726 133.689C437.979 130.324 438.063 125.725 437.586 124.267C437.138 122.921 435.904 122.5 434.894 122.5C432.623 122.5 426.958 122.5 424.266 122.5" stroke="#242424" stroke-width="2.1038" stroke-linecap="round" stroke-linejoin="round"/>
<path d="M424.13 120.816V127.574C424.13 128.135 423.681 128.612 423.092 128.612C422.531 128.612 422.055 128.163 422.055 127.574V120.788C422.055 120.227 422.503 119.75 423.092 119.75C423.681 119.778 424.13 120.227 424.13 120.816Z" stroke="#242424" stroke-width="2.1038" stroke-linecap="round" stroke-linejoin="round"/>
<path d="M419.245 120.506C419.381 119.775 418.899 119.072 418.168 118.936C417.438 118.8 416.735 119.282 416.598 120.013C416.462 120.743 416.944 121.446 417.675 121.583C418.406 121.719 419.109 121.237 419.245 120.506Z" stroke="#242424" stroke-width="2.1038" stroke-linecap="round" stroke-linejoin="round"/>
<path d="M428.002 121.602C428.746 121.602 429.348 121 429.348 120.256C429.348 119.513 428.746 118.91 428.002 118.91C427.259 118.91 426.656 119.513 426.656 120.256C426.656 121 427.259 121.602 428.002 121.602Z" stroke="#242424" stroke-width="2.1038" stroke-linecap="round" stroke-linejoin="round"/>
<path d="M412.045 121.239C412.045 121.239 408.988 121.07 408.203 121.828" stroke="#242424" stroke-width="2.1038" stroke-linecap="round" stroke-linejoin="round"/>
<path d="M438.856 137.168C438.856 137.168 433.415 142.44 425.703 142.917" stroke="#242424" stroke-width="2.1038" stroke-linecap="round" stroke-linejoin="round"/>
<path d="M436.95 140.645C436.95 140.645 435.352 142.103 431.594 143.196" stroke="#242424" stroke-width="2.1038" stroke-linecap="round" stroke-linejoin="round"/>
<path d="M415.042 123.763C415.042 123.763 412.938 123.707 411.845 123.763C410.751 123.819 409.601 124.633 409.517 125.67C409.433 126.708 409.685 127.437 409.685 127.437" stroke="#242424" stroke-width="2.1038" stroke-linecap="round" stroke-linejoin="round"/>
<path d="M412.05 124.883C412.05 124.883 410.843 124.911 410.562 125.836" stroke="#242424" stroke-width="2.1038" stroke-linecap="round" stroke-linejoin="round"/>
<path d="M458.961 118.995V126.034C458.961 126.623 459.438 127.1 460.027 127.1H478.339C478.928 127.1 479.405 126.623 479.405 126.034V118.995C479.405 118.406 478.928 117.93 478.339 117.93H460.027C459.438 117.93 458.961 118.406 458.961 118.995Z" stroke="#242424" stroke-width="2.1038" stroke-linecap="round" stroke-linejoin="round"/>
<path d="M458.961 140.868V128.136C458.961 127.547 459.438 127.07 460.027 127.07H478.339C478.928 127.07 479.405 127.547 479.405 128.136V140.868C479.405 146.112 475.17 150.346 469.926 150.346H468.468C463.196 150.346 458.961 146.112 458.961 140.868Z" stroke="#242424" stroke-width="2.1038" stroke-linecap="round" stroke-linejoin="round"/>
<path d="M472.734 124.157V120.68H466.481V124.157H472.734Z" stroke="#242424" stroke-width="2.1038" stroke-linecap="round" stroke-linejoin="round"/>
<path d="M469.188 124.169V120.691H466.495V124.169H469.188Z" stroke="#242424" stroke-width="2.1038" stroke-linecap="round" stroke-linejoin="round"/>
<path d="M479.383 146.367C479.383 146.367 478.626 149.845 474.531 151.275" stroke="#242424" stroke-width="2.1038" stroke-linecap="round" stroke-linejoin="round"/>
<path d="M476.852 151.497C476.852 151.497 478.422 150.291 478.983 149.281" stroke="#242424" stroke-width="2.1038" stroke-linecap="round" stroke-linejoin="round"/>
<path d="M493.7 179.652H457.047V206.798H493.7V179.652Z" stroke="#242424" stroke-width="2.1038" stroke-linecap="round" stroke-linejoin="round"/>
<path d="M482.819 178.082H467.984V179.652H482.819V178.082Z" stroke="#242424" stroke-width="2.1038" stroke-linecap="round" stroke-linejoin="round"/>
<path d="M457.047 179.652C457.047 179.652 478.865 194.628 493.7 206.798" stroke="#242424" stroke-width="2.1038" stroke-linecap="round" stroke-linejoin="round"/>
<path d="M493.7 179.652C493.7 179.652 471.882 194.628 457.047 206.798" stroke="#242424" stroke-width="2.1038" stroke-linecap="round" stroke-linejoin="round"/>
<path d="M493.984 205.536V106.009C493.984 105.112 494.714 104.383 495.611 104.383H535.264C536.162 104.383 536.891 105.112 536.891 106.009V205.536C536.891 206.433 536.162 207.162 535.264 207.162H495.611C494.714 207.162 493.984 206.433 493.984 205.536Z" stroke="#242424" stroke-width="2.1038" stroke-linecap="round" stroke-linejoin="round"/>
<path d="M516.984 107.973H530.725C531.623 107.973 532.352 108.702 532.352 109.599V190.392C532.352 196.674 527.248 201.778 520.966 201.778H509.917C503.635 201.778 498.531 196.674 498.531 190.392V109.599C498.531 108.702 499.26 107.973 500.158 107.973H513.955" stroke="#242424" stroke-width="2.1038" stroke-linecap="round" stroke-linejoin="round"/>
<path d="M514.031 114.675V106.963C514.031 106.402 514.48 105.953 515.041 105.953H515.798C516.359 105.953 516.808 106.402 516.808 106.963V114.675C516.808 115.236 516.359 115.684 515.798 115.684H515.041C514.508 115.712 514.031 115.264 514.031 114.675Z" stroke="#242424" stroke-width="2.1038" stroke-linecap="round" stroke-linejoin="round"/>
<path d="M525.758 195.58C525.758 195.58 529.74 192.664 529.964 186.578" stroke="#242424" stroke-width="2.1038" stroke-linecap="round" stroke-linejoin="round"/>
<path d="M530.359 184.503C530.359 184.503 530.444 182.793 530.359 182.176" stroke="#242424" stroke-width="2.1038" stroke-linecap="round" stroke-linejoin="round"/>
<path d="M536.643 216.668H500.383V277.494H536.643V216.668Z" stroke="#242424" stroke-width="2.1038" stroke-miterlimit="10" stroke-linecap="round" stroke-linejoin="round"/>
<path d="M506.437 273.65H530.526C532.489 273.65 534.059 272.08 534.059 270.117V226.453C534.059 223.172 531.395 220.508 528.114 220.508H506.408C504.445 220.508 502.875 222.078 502.875 224.041V270.117C502.903 272.08 504.502 273.65 506.437 273.65Z" stroke="#242424" stroke-width="2.1038" stroke-miterlimit="10" stroke-linecap="round" stroke-linejoin="round"/>
<path d="M508.455 250.291H528.002C529.965 250.291 531.535 248.72 531.535 246.757V226.51C531.535 224.547 529.965 222.977 528.002 222.977H508.455C506.492 222.977 504.922 224.547 504.922 226.51V246.757C504.922 248.72 506.52 250.291 508.455 250.291Z" stroke="#242424" stroke-width="2.1038" stroke-miterlimit="10" stroke-linecap="round" stroke-linejoin="round"/>
<path d="M528.118 236.889C528.644 236.889 529.071 236.449 529.071 235.907C529.071 235.365 528.644 234.926 528.118 234.926C527.591 234.926 527.164 235.365 527.164 235.907C527.164 236.449 527.591 236.889 528.118 236.889Z" stroke="#242424" stroke-width="2.1038" stroke-miterlimit="10" stroke-linecap="round" stroke-linejoin="round"/>
<path d="M505.906 253.348V270.931" stroke="#242424" stroke-width="2.1038" stroke-miterlimit="10" stroke-linecap="round" stroke-linejoin="round"/>
<path d="M508.766 253.348V270.931" stroke="#242424" stroke-width="2.1038" stroke-miterlimit="10" stroke-linecap="round" stroke-linejoin="round"/>
<path d="M511.484 253.348V270.931" stroke="#242424" stroke-width="2.1038" stroke-miterlimit="10" stroke-linecap="round" stroke-linejoin="round"/>
<path d="M514.344 253.348V270.931" stroke="#242424" stroke-width="2.1038" stroke-miterlimit="10" stroke-linecap="round" stroke-linejoin="round"/>
<path d="M516.984 253.348V270.931" stroke="#242424" stroke-width="2.1038" stroke-miterlimit="10" stroke-linecap="round" stroke-linejoin="round"/>
<path d="M519.82 253.348V270.931" stroke="#242424" stroke-width="2.1038" stroke-miterlimit="10" stroke-linecap="round" stroke-linejoin="round"/>
<path d="M522.539 253.348V270.931" stroke="#242424" stroke-width="2.1038" stroke-miterlimit="10" stroke-linecap="round" stroke-linejoin="round"/>
<path d="M525.398 253.348V270.931" stroke="#242424" stroke-width="2.1038" stroke-miterlimit="10" stroke-linecap="round" stroke-linejoin="round"/>
<path d="M528.117 253.348V270.931" stroke="#242424" stroke-width="2.1038" stroke-miterlimit="10" stroke-linecap="round" stroke-linejoin="round"/>
<path d="M530.977 253.348V270.931" stroke="#242424" stroke-width="2.1038" stroke-miterlimit="10" stroke-linecap="round" stroke-linejoin="round"/>
<path d="M500.551 325.843H536.531V277.637H500.551C500.551 277.637 499.906 295.725 499.906 301.726C499.934 307.783 500.551 325.843 500.551 325.843Z" stroke="#242424" stroke-width="2.1038" stroke-miterlimit="10" stroke-linecap="round" stroke-linejoin="round"/>
<path d="M509.748 316.842C512.551 316.842 514.824 314.544 514.824 311.71C514.824 308.876 512.551 306.578 509.748 306.578C506.944 306.578 504.672 308.876 504.672 311.71C504.672 314.544 506.944 316.842 509.748 316.842Z" stroke="#242424" stroke-width="2.1038" stroke-miterlimit="10" stroke-linecap="round" stroke-linejoin="round"/>
<path d="M509.752 318.273C513.329 318.273 516.23 315.335 516.23 311.711C516.23 308.086 513.329 305.148 509.752 305.148C506.174 305.148 503.273 308.086 503.273 311.711C503.273 315.335 506.174 318.273 509.752 318.273Z" stroke="#242424" stroke-width="2.1038" stroke-miterlimit="10" stroke-linecap="round" stroke-linejoin="round"/>
<path d="M525.626 315.831C527.887 315.831 529.72 313.985 529.72 311.708C529.72 309.432 527.887 307.586 525.626 307.586C523.364 307.586 521.531 309.432 521.531 311.708C521.531 313.985 523.364 315.831 525.626 315.831Z" stroke="#242424" stroke-width="2.1038" stroke-miterlimit="10" stroke-linecap="round" stroke-linejoin="round"/>
<path d="M525.618 317.401C528.747 317.401 531.283 314.853 531.283 311.708C531.283 308.564 528.747 306.016 525.618 306.016C522.489 306.016 519.953 308.564 519.953 311.708C519.953 314.853 522.489 317.401 525.618 317.401Z" stroke="#242424" stroke-width="2.1038" stroke-miterlimit="10" stroke-linecap="round" stroke-linejoin="round"/>
<path d="M525.624 295.836C528.272 295.836 530.419 293.664 530.419 290.984C530.419 288.305 528.272 286.133 525.624 286.133C522.975 286.133 520.828 288.305 520.828 290.984C520.828 293.664 522.975 295.836 525.624 295.836Z" stroke="#242424" stroke-width="2.1038" stroke-miterlimit="10" stroke-linecap="round" stroke-linejoin="round"/>
<path d="M525.626 297.546C529.204 297.546 532.105 294.608 532.105 290.984C532.105 287.36 529.204 284.422 525.626 284.422C522.049 284.422 519.148 287.36 519.148 290.984C519.148 294.608 522.049 297.546 525.626 297.546Z" stroke="#242424" stroke-width="2.1038" stroke-miterlimit="10" stroke-linecap="round" stroke-linejoin="round"/>
<path d="M509.751 295.137C512.012 295.137 513.845 293.279 513.845 290.986C513.845 288.694 512.012 286.836 509.751 286.836C507.489 286.836 505.656 288.694 505.656 290.986C505.656 293.279 507.489 295.137 509.751 295.137Z" stroke="#242424" stroke-width="2.1038" stroke-miterlimit="10" stroke-linecap="round" stroke-linejoin="round"/>
<path d="M509.748 296.592C512.815 296.592 515.301 294.081 515.301 290.984C515.301 287.886 512.815 285.375 509.748 285.375C506.681 285.375 504.195 287.886 504.195 290.984C504.195 294.081 506.681 296.592 509.748 296.592Z" stroke="#242424" stroke-width="2.1038" stroke-miterlimit="10" stroke-linecap="round" stroke-linejoin="round"/>
<path d="M500.549 332.125H536.978V325.844H500.549C500.549 325.844 500.297 328.199 500.297 328.985C500.297 329.77 500.549 332.125 500.549 332.125Z" stroke="#242424" stroke-width="2.1038" stroke-miterlimit="10" stroke-linecap="round" stroke-linejoin="round"/>
<path d="M500.75 332.153V371.414H536.534V332.153H500.75Z" stroke="#242424" stroke-width="2.1038" stroke-miterlimit="10" stroke-linecap="round" stroke-linejoin="round"/>
<path d="M500.756 370.6V332.152H500.279C498.148 332.152 496.438 333.863 496.438 335.994V366.73C496.438 368.861 498.148 370.572 500.279 370.572H500.756V370.6Z" stroke="#242424" stroke-width="2.1038" stroke-miterlimit="10" stroke-linecap="round" stroke-linejoin="round"/>
<path d="M496.434 365.438H494.555" stroke="#242424" stroke-width="2.1038" stroke-miterlimit="10" stroke-linecap="round" stroke-linejoin="round"/>
<path d="M495.205 335.852C495.205 335.852 495.065 333.02 497.168 331.59" stroke="#242424" stroke-width="2.1038" stroke-miterlimit="10" stroke-linecap="round" stroke-linejoin="round"/>
<path d="M495.481 331.254C495.481 331.254 494.387 332.292 494.078 333.582" stroke="#242424" stroke-width="2.1038" stroke-miterlimit="10" stroke-linecap="round" stroke-linejoin="round"/>
<path d="M292.969 223.569C292.969 223.569 303.625 219.559 308.14 223.092" stroke="#242424" stroke-width="2.1038" stroke-miterlimit="10" stroke-linecap="round" stroke-linejoin="round"/>
<path d="M246.875 223.568C246.875 237.758 246.875 280.328 246.875 280.328C258.737 282.74 307.673 281.814 308.094 280.637C308.234 280.3 308.43 223.344 308.43 223.344" stroke="#242424" stroke-width="2.1038" stroke-miterlimit="10" stroke-linecap="round" stroke-linejoin="round"/>
<path d="M308.089 280.639C301.892 277.077 292.974 265.187 292.974 265.187C291.403 246.622 292.974 223.542 292.974 223.542C292.974 223.542 289.749 222.701 286.888 222.308C284.028 221.916 255.143 221.607 246.898 223.542" stroke="#242424" stroke-width="2.1038" stroke-miterlimit="10" stroke-linecap="round" stroke-linejoin="round"/>
<path d="M200.797 223.569C200.797 223.569 190.14 219.559 185.625 223.092" stroke="#242424" stroke-width="2.1038" stroke-miterlimit="10" stroke-linecap="round" stroke-linejoin="round"/>
<path d="M246.868 223.569C246.868 237.759 246.868 280.329 246.868 280.329C235.006 282.741 186.07 281.815 185.649 280.637C185.509 280.301 185.312 223.316 185.312 223.316" stroke="#242424" stroke-width="2.1038" stroke-miterlimit="10" stroke-linecap="round" stroke-linejoin="round"/>
<path d="M185.648 280.639C191.846 277.077 200.764 265.187 200.764 265.187C202.334 246.622 200.764 223.542 200.764 223.542C200.764 223.542 203.989 222.701 206.849 222.308C209.71 221.916 238.595 221.607 246.839 223.542" stroke="#242424" stroke-width="2.1038" stroke-miterlimit="10" stroke-linecap="round" stroke-linejoin="round"/>
<path d="M292.973 265.188C292.973 265.188 272.557 264.262 266.948 264.402C261.34 264.571 251.16 264.823 246.869 266.029C246.869 266.029 219.218 261.822 200.766 265.188" stroke="#242424" stroke-width="2.1038" stroke-miterlimit="10" stroke-linecap="round" stroke-linejoin="round"/>
<path d="M292.969 221.13C292.969 221.13 297.568 219.672 300.569 219.504" stroke="#242424" stroke-width="2.1038" stroke-miterlimit="10" stroke-linecap="round" stroke-linejoin="round"/>
<path d="M295.945 218.493C295.945 218.493 298.862 217.456 300.544 217.624" stroke="#242424" stroke-width="2.1038" stroke-miterlimit="10" stroke-linecap="round" stroke-linejoin="round"/>
<path d="M203.176 252.285C203.176 252.285 203.4 258.006 202.727 261.82" stroke="#242424" stroke-width="2.1038" stroke-miterlimit="10" stroke-linecap="round" stroke-linejoin="round"/>
<path d="M292.781 262.828C292.781 262.828 296.707 266.334 298.614 267.147" stroke="#242424" stroke-width="2.1038" stroke-miterlimit="10" stroke-linecap="round" stroke-linejoin="round"/>
<path d="M246.872 263.896C246.872 263.896 242.778 262.185 240.562 261.82" stroke="#242424" stroke-width="2.1038" stroke-miterlimit="10" stroke-linecap="round" stroke-linejoin="round"/>
<path d="M246.862 262.831C246.862 262.831 245.769 261.681 244.086 261.008" stroke="#242424" stroke-width="2.1038" stroke-miterlimit="10" stroke-linecap="round" stroke-linejoin="round"/>
<path d="M512.717 90.4141H182.477V103.735H512.717V90.4141Z" fill="#242424" stroke="#242424" stroke-width="3.8305" stroke-linecap="round" stroke-linejoin="round"/>
<path d="M519.133 67.5312H506.766V103.707H519.133V67.5312Z" fill="#242424" stroke="#242424" stroke-width="3.8305" stroke-linecap="round" stroke-linejoin="round"/>
<path d="M539.279 67.5312H516.844V79.8423H539.279V67.5312Z" fill="#242424" stroke="#242424" stroke-width="3.8305" stroke-linecap="round" stroke-linejoin="round"/>
<path d="M400.452 95.4336H393.75V216.217H400.452V95.4336Z" fill="#242424" stroke="#242424" stroke-width="3.8305" stroke-linecap="round" stroke-linejoin="round"/>
<path d="M406.681 209.516H399.727V216.218H406.681V209.516Z" fill="#242424" stroke="#242424" stroke-width="3.8305" stroke-linecap="round" stroke-linejoin="round"/>
<path d="M538.874 371.914H453.734V378.616H538.874V371.914Z" fill="#242424" stroke="#242424" stroke-width="3.8305" stroke-linecap="round" stroke-linejoin="round"/>
<path d="M555.513 482.156H537.453V503.245H555.513V482.156Z" fill="#242424" stroke="#242424" stroke-width="3.8305" stroke-linecap="round" stroke-linejoin="round"/>
<path d="M555.513 67.5312H537.453V421.412H555.513V67.5312Z" fill="#242424" stroke="#242424" stroke-width="3.8305" stroke-linecap="round" stroke-linejoin="round"/>
<path d="M548.385 209.516H453.43V216.218H548.385V209.516Z" fill="#242424" stroke="#242424" stroke-width="3.8305" stroke-linecap="round" stroke-linejoin="round"/>
<path d="M539.279 97.875H516.844V103.708H539.279V97.875Z" fill="#242424" stroke="#242424" stroke-width="3.8305" stroke-linecap="round" stroke-linejoin="round"/>
<path d="M184.804 90.4141H156.172V107.829H184.804V90.4141Z" fill="#242424" stroke="#242424" stroke-width="3.8305" stroke-linecap="round" stroke-linejoin="round"/>
<path d="M141 90.4141L135.531 110.633H170.838L170.866 90.4141H141Z" fill="#242424" stroke="#242424" stroke-width="3.8305" stroke-linecap="round" stroke-linejoin="round"/>
<path d="M369.691 461.961H354.211V517.852H369.691V461.961Z" fill="#242424" stroke="#242424" stroke-width="3.8305" stroke-linecap="round" stroke-linejoin="round"/>
<path d="M408.37 488.969H379.625V517.854H408.37V488.969Z" fill="#242424" stroke="#242424" stroke-width="3.8305" stroke-linecap="round" stroke-linejoin="round"/>
<path d="M555.51 488.969H532.57V517.854H555.51V488.969Z" fill="#242424" stroke="#242424" stroke-width="3.8305" stroke-linecap="round" stroke-linejoin="round"/>
<path d="M383.407 464.938H366.469V517.856H383.407V464.938Z" fill="#242424" stroke="#242424" stroke-width="3.8305" stroke-linecap="round" stroke-linejoin="round"/>
<path d="M358.225 503.213L359.711 461.961H350.232L334.5 522.647L411.451 538.436V503.213H358.225Z" fill="#242424" stroke="#242424" stroke-width="3.8305" stroke-linecap="round" stroke-linejoin="round"/>
<path d="M555.569 508.066H529.461V522.733L545.193 538.466H555.429L555.569 508.066Z" fill="#242424" stroke="#242424" stroke-width="3.8305" stroke-linecap="round" stroke-linejoin="round"/>
<path d="M170.722 255.703H155.242V311.594H170.722V255.703Z" fill="#242424" stroke="#242424" stroke-width="3.8305" stroke-linecap="round" stroke-linejoin="round"/>
<path d="M213.916 282.711H180.656V311.596H213.916V282.711Z" fill="#242424" stroke="#242424" stroke-width="3.8305" stroke-linecap="round" stroke-linejoin="round"/>
<path d="M384.334 282.711H337.922V311.596H384.334V282.711Z" fill="#242424" stroke="#242424" stroke-width="3.8305" stroke-linecap="round" stroke-linejoin="round"/>
<path d="M384.33 300.375H355.445V329.26H384.33V300.375Z" fill="#242424" stroke="#242424" stroke-width="3.8305" stroke-linecap="round" stroke-linejoin="round"/>
<path d="M184.438 258.648H167.5V311.566H184.438V258.648Z" fill="#242424" stroke="#242424" stroke-width="3.8305" stroke-linecap="round" stroke-linejoin="round"/>
<path d="M159.256 296.927L160.742 255.703H151.264L135.531 316.361L216.998 332.15V296.927H159.256Z" fill="#242424" stroke="#242424" stroke-width="3.8305" stroke-linecap="round" stroke-linejoin="round"/>
<path d="M365.372 301.777H334.805V316.472L350.537 332.205H365.232L365.372 301.777Z" fill="#242424" stroke="#242424" stroke-width="3.8305" stroke-linecap="round" stroke-linejoin="round"/>
<path d="M170.869 152.086H165.961V159.377H170.869V152.086Z" fill="#242424" stroke="#242424" stroke-width="2.1038" stroke-linecap="round" stroke-linejoin="round"/>
<path d="M170.869 107.859H165.961V117.534H170.869V107.859Z" fill="#242424" stroke="#242424" stroke-width="2.1038" stroke-linecap="round" stroke-linejoin="round"/>
<path d="M170.869 248.496H165.961V258.984H170.869V248.496Z" fill="#242424" stroke="#242424" stroke-width="2.1038" stroke-linecap="round" stroke-linejoin="round"/>
<path d="M170.869 106.598H165.961V259.351H170.869V106.598Z" stroke="#242424" stroke-width="2.1038" stroke-linecap="round" stroke-linejoin="round"/>
<path d="M169.304 106.598H167.453V259.351H169.304V106.598Z" stroke="#242424" stroke-width="2.1038" stroke-linecap="round" stroke-linejoin="round"/>
<path d="M369.783 374.527H364.875V381.819H369.783V374.527Z" fill="#242424" stroke="#242424" stroke-width="2.1038" stroke-linecap="round" stroke-linejoin="round"/>
<path d="M369.783 330.301H364.875V339.976H369.783V330.301Z" fill="#242424" stroke="#242424" stroke-width="2.1038" stroke-linecap="round" stroke-linejoin="round"/>
<path d="M369.783 454.59H364.875V465.078H369.783V454.59Z" fill="#242424" stroke="#242424" stroke-width="2.1038" stroke-linecap="round" stroke-linejoin="round"/>
<path d="M369.783 329.012H364.875V465.135H369.783V329.012Z" stroke="#242424" stroke-width="2.1038" stroke-linecap="round" stroke-linejoin="round"/>
<path d="M369.752 329.012H350.094V465.135H369.752V329.012Z" stroke="#242424" stroke-width="2.1038" stroke-linecap="round" stroke-linejoin="round"/>
<path d="M368.21 329.012H366.359V465.135H368.21V329.012Z" stroke="#242424" stroke-width="2.1038" stroke-linecap="round" stroke-linejoin="round"/>
<path d="M459.83 503.301H452.539V508.208H459.83V503.301Z" fill="#242424" stroke="#242424" stroke-width="2.1038" stroke-linecap="round" stroke-linejoin="round"/>
<path d="M417.988 503.301H408.312V508.208H417.988V503.301Z" fill="#242424" stroke="#242424" stroke-width="2.1038" stroke-linecap="round" stroke-linejoin="round"/>
<path d="M531.879 503.301H521.391V508.208H531.879V503.301Z" fill="#242424" stroke="#242424" stroke-width="2.1038" stroke-linecap="round" stroke-linejoin="round"/>
<path d="M543.147 503.301H407.023V508.208H543.147V503.301Z" stroke="#242424" stroke-width="2.1038" stroke-linecap="round" stroke-linejoin="round"/>
<path d="M543.147 503.301H407.023V522.959H543.147V503.301Z" stroke="#242424" stroke-width="2.1038" stroke-linecap="round" stroke-linejoin="round"/>
<path d="M543.147 504.844H407.023V506.695H543.147V504.844Z" stroke="#242424" stroke-width="2.1038" stroke-linecap="round" stroke-linejoin="round"/>
<path d="M264.791 297.324H257.5V302.232H264.791V297.324Z" fill="#242424" stroke="#242424" stroke-width="2.1038" stroke-linecap="round" stroke-linejoin="round"/>
<path d="M222.948 297.324H213.273V302.232H222.948V297.324Z" fill="#242424" stroke="#242424" stroke-width="2.1038" stroke-linecap="round" stroke-linejoin="round"/>
<path d="M337.254 297.324H326.766V302.232H337.254V297.324Z" fill="#242424" stroke="#242424" stroke-width="2.1038" stroke-linecap="round" stroke-linejoin="round"/>
<path d="M337.142 297.324H211.984V302.232H337.142V297.324Z" stroke="#242424" stroke-width="2.1038" stroke-linecap="round" stroke-linejoin="round"/>
<path d="M337.142 297.324H211.984V316.983H337.142V297.324Z" stroke="#242424" stroke-width="2.1038" stroke-linecap="round" stroke-linejoin="round"/>
<path d="M337.142 298.867H211.984V300.718H337.142V298.867Z" stroke="#242424" stroke-width="2.1038" stroke-linecap="round" stroke-linejoin="round"/>
<path d="M150.508 90.418V267.821" stroke="#242424" stroke-width="2.1038" stroke-linecap="round" stroke-linejoin="round"/>
<path d="M554.275 421.441H548.891V424.049H554.275V421.441Z" stroke="#242424" stroke-width="2.1038" stroke-miterlimit="10" stroke-linecap="round" stroke-linejoin="round"/>
<path d="M592.411 462.355L554.244 424.188L552.141 426.375L590.336 464.514L592.411 462.355Z" stroke="#242424" stroke-width="2.1038" stroke-miterlimit="10" stroke-linecap="round" stroke-linejoin="round"/>
<path d="M554.275 479.492H548.891V481.904H554.275V479.492Z" stroke="#242424" stroke-width="2.1038" stroke-miterlimit="10" stroke-linecap="round" stroke-linejoin="round"/>
<path d="M590.333 464.516C590.333 464.516 575.498 479.267 554.297 479.463" stroke="#242424" stroke-width="2.1038" stroke-miterlimit="10" stroke-linecap="round" stroke-linejoin="round"/>
<path d="M406.688 210.185V214.363H408.707V210.185H406.688Z" stroke="#242424" stroke-width="2.1038" stroke-miterlimit="10" stroke-linecap="round" stroke-linejoin="round"/>
<path d="M438.426 180.633L408.812 210.219L410.523 211.845L440.109 182.231L438.426 180.633Z" stroke="#242424" stroke-width="2.1038" stroke-miterlimit="10" stroke-linecap="round" stroke-linejoin="round"/>
<path d="M451.703 210.189V214.367H453.582V210.189H451.703Z" stroke="#242424" stroke-width="2.1038" stroke-miterlimit="10" stroke-linecap="round" stroke-linejoin="round"/>
<path d="M440.109 182.23C440.109 182.23 451.551 193.728 451.719 210.162" stroke="#242424" stroke-width="2.1038" stroke-miterlimit="10" stroke-linecap="round" stroke-linejoin="round"/>
<path d="M452.086 444.41L449.618 440.961H450.796L452.675 443.597L454.582 440.961H455.704L453.236 444.382L455.872 448.084H454.694L452.619 445.195L450.544 448.084H449.422L452.086 444.41Z" fill="#242424"/>
<path d="M461.313 445.447C461.313 447.354 459.995 448.196 458.79 448.196C457.556 448.196 456.266 447.354 456.266 445.447C456.266 443.541 457.584 442.699 458.79 442.699C460.023 442.699 461.313 443.541 461.313 445.447ZM458.79 447.411C459.603 447.411 460.36 446.794 460.36 445.447C460.36 444.045 459.603 443.484 458.79 443.484C457.976 443.484 457.219 444.017 457.219 445.447C457.219 446.85 457.976 447.411 458.79 447.411Z" fill="#242424"/>
<path d="M466.528 448.057H465.631V443.542H463.864L463.78 444.832C463.64 446.964 463.191 448.057 461.957 448.057H461.789V447.272H461.873C462.35 447.272 462.799 446.767 462.911 444.58L462.995 442.785H466.528V448.057Z" fill="#242424"/>
<path d="M472.224 448.057H471.326V443.542H469.56L469.475 444.832C469.335 446.964 468.887 448.057 467.653 448.057H467.484V447.272H467.569C468.045 447.272 468.494 446.767 468.606 444.58L468.69 442.785H472.224V448.057Z" fill="#242424"/>
<path d="M453.49 457.506C453.49 456.329 452.676 455.824 451.891 455.824C451.162 455.824 450.685 456.244 450.517 456.609L449.62 456.553L450.068 452.711H454.163V453.552H450.797L450.545 455.571C450.938 455.207 451.498 455.039 452.087 455.039C453.321 455.039 454.415 455.936 454.415 457.506C454.415 459.133 453.209 459.974 451.891 459.974C450.265 459.974 449.479 458.937 449.367 457.787H450.293C450.433 458.684 450.91 459.217 451.891 459.217C452.732 459.217 453.49 458.6 453.49 457.506Z" fill="#242424"/>
<path d="M455.312 459.833V458.711H456.435V459.833H455.312Z" fill="#242424"/>
<path d="M461.263 457.842C461.263 456.832 460.338 456.496 459.216 456.496H459.076V455.682H459.188C460.422 455.682 461.095 455.346 461.095 454.505C461.095 453.747 460.478 453.355 459.721 453.355C458.767 453.355 458.234 453.916 458.178 454.729H457.253C457.365 453.467 458.262 452.598 459.749 452.598C460.983 452.598 462.048 453.102 462.048 454.392C462.048 455.122 461.628 455.739 460.898 456.047C461.964 456.384 462.245 457.085 462.245 457.842C462.245 459.272 461.039 459.973 459.665 459.973C457.982 459.973 457.253 458.935 457.141 457.758H458.066C458.178 458.627 458.683 459.244 459.693 459.244C460.618 459.216 461.263 458.739 461.263 457.842Z" fill="#242424"/>
<path d="M469.199 459.835H468.329V455.6L466.619 459.835H465.974L464.291 455.656V459.835H463.422V454.562H464.712L466.338 458.629L467.909 454.562H469.199V459.835Z" fill="#242424"/>
<path d="M473.009 452.543C473.009 453.328 472.28 454.085 471.018 454.927H473.093V455.544H470.148V454.955C471.466 453.917 472.252 453.216 472.252 452.571C472.252 452.178 471.999 451.982 471.635 451.982C471.27 451.982 470.934 452.206 470.934 452.823H470.205C470.205 452.01 470.765 451.449 471.635 451.449C472.42 451.477 473.009 451.842 473.009 452.543Z" fill="#242424"/>
<path d="M440.31 157.75C440.001 159.32 438.767 160.133 437.225 160.133C435.178 160.133 434 158.591 434 156.432C434 154.244 435.318 152.758 437.309 152.758C438.795 152.758 439.973 153.627 440.282 155.142H439.3C439.104 154.244 438.375 153.599 437.253 153.599C435.991 153.599 435.01 154.581 435.01 156.432C435.01 158.226 435.963 159.292 437.281 159.292C438.431 159.292 439.104 158.647 439.328 157.75H440.31Z" fill="#242424"/>
<path d="M440.609 160.021L443.414 152.898H444.311L441.507 160.021H440.609Z" fill="#242424"/>
<path d="M445.416 160.162V159.292H446.089C446.453 159.292 446.734 159.18 446.93 158.816L447.07 158.563L444.406 152.898H445.5L447.575 157.526L449.482 152.898H450.604L447.996 158.844C447.603 159.657 447.014 160.162 446.173 160.162H445.416Z" fill="#242424"/>
<path d="M434.138 169.807C434.138 168.797 433.213 168.461 432.091 168.461H431.951V167.647H432.063C433.297 167.647 433.97 167.311 433.97 166.469C433.97 165.712 433.353 165.32 432.596 165.32C431.642 165.32 431.109 165.881 431.053 166.694H430.128C430.24 165.432 431.137 164.562 432.624 164.562C433.858 164.562 434.923 165.067 434.923 166.357C434.923 167.086 434.503 167.703 433.773 168.012C434.839 168.348 435.12 169.049 435.12 169.807C435.12 171.237 433.914 171.938 432.54 171.938C430.857 171.938 430.128 170.9 430.016 169.723H430.941C431.053 170.592 431.558 171.209 432.568 171.209C433.465 171.181 434.138 170.704 434.138 169.807Z" fill="#242424"/>
<path d="M435.961 171.801V170.68H437.083V171.801H435.961Z" fill="#242424"/>
<path d="M442.21 168.433C441.873 168.993 441.256 169.414 440.331 169.414C439.013 169.414 438.031 168.433 438.031 167.002C438.031 165.684 439.013 164.562 440.527 164.562C442.294 164.562 443.107 165.796 443.107 168.012C443.107 170.003 442.378 171.938 440.331 171.938C438.929 171.938 438.284 171.069 438.143 170.171H439.125C439.237 170.816 439.714 171.209 440.443 171.209C441.565 171.181 442.154 170.087 442.21 168.433ZM440.555 165.292C439.63 165.292 438.985 165.993 438.985 166.946C438.985 167.9 439.63 168.629 440.527 168.629C441.453 168.629 442.07 167.928 442.07 166.946C442.098 165.993 441.509 165.292 440.555 165.292Z" fill="#242424"/>
<path d="M450.152 171.8H449.283V167.565L447.572 171.8H446.927L445.244 167.621V171.8H444.375V166.527H445.665L447.292 170.594L448.862 166.527H450.152V171.8Z" fill="#242424"/>
<path d="M453.97 164.48C453.97 165.266 453.241 166.023 451.979 166.864H454.054V167.481H451.109V166.892C452.427 165.855 453.213 165.153 453.213 164.508C453.213 164.116 452.96 163.92 452.596 163.92C452.231 163.92 451.895 164.144 451.895 164.761H451.165C451.165 163.948 451.726 163.387 452.596 163.387C453.381 163.443 453.97 163.807 453.97 164.48Z" fill="#242424"/>
<path d="M420.196 280.636H419.439V283.889H418.43V276.766H419.439V279.766H420.168L422.552 276.766H423.758L421.01 280.131L423.87 283.889H422.664L420.196 280.636Z" fill="#242424"/>
<path d="M424.15 284.844H424.515C425.104 284.844 425.384 284.816 425.637 283.974L425.665 283.862L423.758 278.59H424.739L426.085 282.656L427.403 278.59H428.329L426.45 284.086C426.057 285.236 425.805 285.573 424.627 285.573H424.178V284.844H424.15Z" fill="#242424"/>
<path d="M431.473 281.114L433.436 283.862H432.37L430.94 281.843L429.51 283.862H428.5L430.435 281.142L428.612 278.59H429.678L430.968 280.413L432.258 278.59H433.267L431.473 281.114Z" fill="#242424"/>
<path d="M437.81 283.862V281.562H435.202V283.862H434.305V278.59H435.202V280.777H437.81V278.59H438.708V283.862H437.81Z" fill="#242424"/>
<path d="M444.124 283.862H443.227V281.983H442.302C442.245 281.983 442.189 281.983 442.161 281.983L440.731 283.862H439.609L441.208 281.731C440.535 281.506 440.086 281.002 440.086 280.216C440.086 279.123 440.843 278.59 442.049 278.59H444.124V283.862ZM442.105 279.347C441.46 279.347 441.012 279.627 441.012 280.272C441.012 281.002 441.572 281.226 442.189 281.226H443.227V279.375H442.105V279.347Z" fill="#242424"/>
<path d="M445.297 281.587V280.746H448.41V281.587H445.297Z" fill="#242424"/>
<path d="M453.091 283.862V281.562H450.483V283.862H449.586V278.59H450.483V280.777H453.091V278.59H453.989V283.862H453.091Z" fill="#242424"/>
<path d="M459.118 279.88L456.397 283.862H455.5V278.59H456.397V282.572L459.118 278.59H460.015V283.862H459.118V279.88Z" fill="#242424"/>
<path d="M468.037 283.862H461.531V278.59H462.429V283.105H464.336V278.59H465.233V283.105H467.14V278.59H468.037V283.862Z" fill="#242424"/>
<path d="M469.188 282.459C469.188 281.226 470.59 280.833 472.749 280.609V280.468C472.749 279.487 472.216 279.178 471.543 279.178C470.786 279.178 470.365 279.571 470.337 280.216H469.412C469.496 279.066 470.506 278.449 471.543 278.449C473.001 278.449 473.646 279.15 473.646 280.637V281.842C473.646 282.74 473.674 283.329 473.787 283.834H472.889C472.861 283.637 472.833 283.413 472.833 283.104C472.497 283.665 471.964 283.946 471.038 283.946C470.001 284.002 469.188 283.441 469.188 282.459ZM472.833 281.31C471.207 281.478 470.169 281.702 470.169 282.431C470.169 282.936 470.562 283.273 471.179 283.273C472.02 283.273 472.805 282.88 472.805 281.646V281.31H472.833Z" fill="#242424"/>
<path d="M438.029 293.311C438.029 292.133 437.215 291.628 436.43 291.628C435.701 291.628 435.224 292.049 435.056 292.414L434.159 292.358L434.607 288.516H438.702V289.357H435.336L435.084 291.376C435.477 291.011 436.038 290.843 436.626 290.843C437.86 290.843 438.954 291.741 438.954 293.311C438.954 294.938 437.748 295.779 436.43 295.779C434.804 295.779 434.018 294.741 433.906 293.591H434.832C434.972 294.489 435.449 295.022 436.43 295.022C437.271 295.022 438.029 294.405 438.029 293.311Z" fill="#242424"/>
<path d="M439.859 295.637V294.516H440.982V295.637H439.859Z" fill="#242424"/>
<path d="M444.37 295.778C442.463 295.778 441.594 294.348 441.594 292.076C441.594 289.833 442.463 288.402 444.37 288.402C446.277 288.402 447.146 289.833 447.146 292.076C447.146 294.32 446.277 295.778 444.37 295.778ZM444.37 289.131C443.248 289.131 442.547 290.085 442.547 292.076C442.547 294.067 443.248 295.021 444.37 295.021C445.492 295.021 446.193 294.067 446.193 292.076C446.193 290.113 445.492 289.131 444.37 289.131Z" fill="#242424"/>
<path d="M454.152 295.639H453.283V291.405L451.572 295.639H450.927L449.244 291.461V295.639H448.375V290.367H449.665L451.292 294.433L452.862 290.367H454.152V295.639Z" fill="#242424"/>
<path d="M457.97 288.32C457.97 289.105 457.241 289.863 455.979 290.704H458.054V291.321H455.109V290.732C456.427 289.694 457.213 288.993 457.213 288.348C457.213 287.956 456.96 287.759 456.596 287.759C456.231 287.759 455.895 287.984 455.895 288.601H455.165C455.165 287.787 455.726 287.227 456.596 287.227C457.381 287.283 457.97 287.647 457.97 288.32Z" fill="#242424"/>
<path d="M255.303 170.565H251.853V176.818H250.844V169.695H255.303V170.565Z" fill="#242424"/>
<path d="M259.759 174.182C259.759 176.089 258.441 176.93 257.235 176.93C256.001 176.93 254.711 176.089 254.711 174.182C254.711 172.275 256.029 171.434 257.235 171.434C258.441 171.434 259.759 172.275 259.759 174.182ZM257.207 176.145C258.02 176.145 258.777 175.528 258.777 174.182C258.777 172.78 258.02 172.219 257.207 172.219C256.394 172.219 255.636 172.752 255.636 174.182C255.636 175.612 256.394 176.145 257.207 176.145Z" fill="#242424"/>
<path d="M265.283 173.284H264.386C264.245 172.668 263.713 172.219 263.011 172.219C262.226 172.219 261.497 172.836 261.497 174.154C261.497 175.5 262.226 176.145 263.011 176.145C263.769 176.145 264.301 175.64 264.414 175.079H265.339C265.143 176.061 264.217 176.93 262.983 176.93C261.469 176.93 260.516 175.78 260.516 174.182C260.516 172.611 261.497 171.434 263.068 171.434C264.386 171.434 265.171 172.387 265.283 173.284Z" fill="#242424"/>
<path d="M268.348 172.305V176.82H267.451V172.305H265.656V171.52H270.171V172.305H268.348Z" fill="#242424"/>
<path d="M274.649 172.837L271.929 176.819H271.031V171.547H271.929V175.529L274.649 171.547H275.546V176.819H274.649V172.837Z" fill="#242424"/>
<path d="M280.568 176.819V174.519H277.96V176.819H277.062V171.547H277.96V173.734H280.568V171.547H281.465V176.819H280.568Z" fill="#242424"/>
<path d="M282.617 175.416C282.617 174.183 284.019 173.79 286.179 173.566V173.425C286.179 172.444 285.646 172.135 284.973 172.135C284.216 172.135 283.795 172.528 283.767 173.173H282.842C282.926 172.023 283.935 171.406 284.973 171.406C286.431 171.406 287.076 172.107 287.076 173.594V174.8C287.076 175.697 287.104 176.286 287.216 176.791H286.319C286.291 176.594 286.263 176.37 286.263 176.061C285.926 176.622 285.393 176.903 284.468 176.903C283.43 176.931 282.617 176.398 282.617 175.416ZM286.263 174.267C284.636 174.435 283.599 174.659 283.599 175.388C283.599 175.893 283.991 176.23 284.608 176.23C285.45 176.23 286.235 175.837 286.235 174.603V174.267H286.263Z" fill="#242424"/>
<path d="M292.374 176.819H291.477V174.94H290.552C290.495 174.94 290.439 174.94 290.411 174.94L288.981 176.819H287.859L289.458 174.688C288.785 174.463 288.336 173.959 288.336 173.173C288.336 172.08 289.093 171.547 290.299 171.547H292.374V176.819ZM290.355 172.304C289.71 172.304 289.262 172.584 289.262 173.229C289.262 173.959 289.822 174.183 290.439 174.183H291.477V172.332H290.355V172.304Z" fill="#242424"/>
<path d="M259.397 188.596V183.043H257.742V182.426C258.752 182.398 259.285 182.258 259.677 181.473H260.294V188.596H259.397Z" fill="#242424"/>
<path d="M267.163 186.829H265.845V188.596H264.948V186.829H261.414V185.988L264.948 181.473H265.873V185.988H267.191V186.829H267.163ZM262.396 185.988H264.948V182.707L262.396 185.988Z" fill="#242424"/>
<path d="M267.922 188.598V187.477H269.044V188.598H267.922Z" fill="#242424"/>
<path d="M269.797 181.473H274.733V182.314C272.966 183.744 271.872 185.932 271.732 188.596H270.638C270.806 186.044 271.928 183.856 273.695 182.314H269.797V181.473Z" fill="#242424"/>
<path d="M281.246 188.596H280.376V184.362L278.666 188.596H278.021L276.338 184.418V188.596H275.469V183.324H276.759L278.385 187.391L279.956 183.324H281.246V188.596Z" fill="#242424"/>
<path d="M285.051 181.277C285.051 182.063 284.322 182.82 283.06 183.661H285.135V184.278H282.219V183.689C283.537 182.651 284.322 181.95 284.322 181.305C284.322 180.913 284.07 180.716 283.705 180.716C283.34 180.716 283.004 180.941 283.004 181.558H282.275C282.275 180.744 282.836 180.184 283.705 180.184C284.49 180.212 285.051 180.604 285.051 181.277Z" fill="#242424"/>
</g>
<defs>
<clipPath id="clip0_1875_16063">
<rect width="457.726" height="472" fill="white" transform="translate(135 67)"/>
</clipPath>
</defs>
</svg>
