<svg width="1896" height="332" viewBox="0 0 1896 332" fill="none" xmlns="http://www.w3.org/2000/svg">
<path d="M1760.67 331.978C1677.65 331.978 1624.83 295.094 1622.3 223.641H1672.6C1672.6 267.447 1709.84 290.486 1762.66 290.486H1767.69C1814.98 290.486 1840.63 268.814 1840.63 242.072C1840.63 215.329 1822.51 200.58 1785.3 193.658L1728.96 183.053C1672.6 172.448 1639.91 143.413 1639.91 92.2213C1639.91 41.0287 1689.73 0 1765.69 0C1841.66 0 1893.47 39.1989 1896 101.436H1845.7C1843.17 64.5526 1810.99 41.4917 1768.22 41.4917H1763.19C1719.41 41.4917 1690.25 63.1636 1690.25 91.7579C1690.25 116.649 1708.88 131.42 1738.56 136.953L1794.9 147.095C1855.78 158.162 1891 187.661 1891 240.242C1891 296.946 1838.68 332 1760.71 332M1372.95 46.0995V156.751H1466.01C1508.79 156.751 1533.92 131.398 1533.92 99.1213C1533.92 64.5304 1508.76 46.0995 1466.01 46.0995H1372.95ZM1372.95 327.348H1322.65V4.60774H1473.57C1538.97 4.60774 1584.25 41.4917 1584.25 92.2213C1584.25 133.713 1559.09 164.6 1526.39 173.816C1566.64 173.816 1579.22 186.735 1579.22 219.011V327.37H1528.92V230.542C1528.92 205.188 1521.37 198.265 1493.7 198.265H1372.95V327.37V327.348ZM1116.76 331.956C1026.22 331.956 983.444 283.542 983.444 212.089V4.60774H1033.74V207.48C1033.74 260.503 1061.41 290.464 1114.24 290.464H1119.26C1172.09 290.464 1199.75 260.503 1199.75 207.48V4.60774H1250.05V212.089C1250.05 283.563 1204.77 331.956 1116.74 331.956H1116.76ZM953.375 327.348H890.495L773.275 170.574L711.886 227.741V327.348H661.587V4.60774H711.886V164.6L885.445 4.60774H950.854L809.481 136.491L953.375 327.37V327.348ZM455.628 47.0254L389.212 202.873H522.02L455.604 47.0254H455.628ZM627.189 327.37H574.869L539.652 244.387H371.628L336.411 327.37H285.101L424.453 4.60774H488.848L627.189 327.37ZM50.2993 46.0995V156.751H143.368C186.138 156.751 211.276 131.398 211.276 99.1213C211.276 64.5304 186.114 46.0995 143.368 46.0995H50.2993ZM50.2993 327.348H0V4.60774H150.922C216.328 4.60774 261.599 41.4917 261.599 92.2213C261.599 133.713 236.438 164.6 203.747 173.816C243.991 173.816 256.572 186.735 256.572 219.011V327.37H206.272V230.542C206.272 205.188 198.719 198.265 171.056 198.265H50.2993V327.37V327.348Z" fill="#242424"/>
</svg>
