<svg width="176" height="34" viewBox="0 0 176 34" fill="none" xmlns="http://www.w3.org/2000/svg">
<path d="M163.437 33.9977C155.732 33.9977 150.828 30.2205 150.593 22.903H155.262C155.262 27.3892 158.719 29.7486 163.623 29.7486H164.089C168.479 29.7486 170.86 27.5292 170.86 24.7905C170.86 22.0518 169.178 20.5413 165.724 19.8324L160.494 18.7464C155.262 17.6604 152.228 14.6869 152.228 9.44435C152.228 4.20174 156.852 0 163.904 0C170.956 0 175.765 4.01434 176 10.3881H171.331C171.096 6.6108 168.108 4.24915 164.138 4.24915H163.672C159.608 4.24915 156.901 6.46856 156.901 9.39689C156.901 11.9459 158.63 13.4586 161.385 14.0253L166.615 15.0639C172.267 16.1973 175.536 19.2182 175.536 24.6031C175.536 30.4101 170.679 34 163.442 34M127.446 4.72103V16.0528H136.086C140.056 16.0528 142.389 13.4564 142.389 10.151C142.389 6.60854 140.054 4.72103 136.086 4.72103H127.446ZM127.446 33.5236H122.777V0.471877H136.787C142.858 0.471877 147.061 4.24915 147.061 9.44435C147.061 13.6935 144.725 16.8566 141.69 17.8004C145.426 17.8004 146.594 19.1235 146.594 22.4289V33.5259H141.925V23.6097C141.925 21.0132 141.224 20.3043 138.656 20.3043H127.446V33.5259V33.5236ZM103.665 33.9955C95.2608 33.9955 91.2902 29.0374 91.2902 21.7199V0.471877H95.9593V21.248C95.9593 26.678 98.5273 29.7463 103.431 29.7463H103.897C108.801 29.7463 111.369 26.678 111.369 21.248V0.471877H116.038V21.7199C116.038 29.0396 111.836 33.9955 103.663 33.9955H103.665ZM88.499 33.5236H82.6619L71.7808 17.4685L66.0823 23.3229V33.5236H61.4131V0.471877H66.0823V16.8566L82.1932 0.471877H88.2649L75.1417 13.978L88.499 33.5259V33.5236ZM42.2946 4.81585L36.1294 20.7761H48.4576L42.2923 4.81585H42.2946ZM58.2201 33.5259H53.3634L50.0943 25.0276H34.4971L31.228 33.5259H26.4651L39.4007 0.471877H45.3783L58.2201 33.5259ZM4.66913 4.72103V16.0528H13.3084C17.2787 16.0528 19.6121 13.4564 19.6121 10.151C19.6121 6.60854 17.2764 4.72103 13.3084 4.72103H4.66913ZM4.66913 33.5236H0V0.471877H14.0096C20.0811 0.471877 24.2835 4.24915 24.2835 9.44435C24.2835 13.6935 21.9478 16.8566 18.9132 17.8004C22.649 17.8004 23.8168 19.1235 23.8168 22.4289V33.5259H19.1477V23.6097C19.1477 21.0132 18.4465 20.3043 15.8786 20.3043H4.66913V33.5259V33.5236Z" fill="#242424"/>
</svg>
