<svg width="30" height="15" viewBox="0 0 30 15" fill="none" xmlns="http://www.w3.org/2000/svg">
<path d="M12.361 2.20209L12.428 5.08475L6.71918 5.08108L8.94961 2.21801L12.361 2.20209ZM16.7817 2.18128L19.1918 5.08841L13.1236 5.08474L13.0566 2.19842L16.7817 2.18128ZM16.952 1.54479L8.76732 1.58396C8.65607 1.58396 8.55152 1.63415 8.48584 1.71738L5.76214 5.21447C5.68708 5.31117 5.67636 5.43847 5.73668 5.54375C5.79566 5.65024 5.91495 5.71634 6.04497 5.71634L19.8915 5.72491C20.0242 5.72491 20.1448 5.65636 20.2038 5.54865C20.2628 5.4397 20.2494 5.31118 20.1689 5.21448L17.2308 1.6707C17.1651 1.59113 17.0619 1.54479 16.952 1.54479ZM26.411 6.92705L28.612 6.93072L28.5999 7.73981L28.8492 7.74104L26.4285 7.73002L26.411 6.92705ZM18.796 0.636548L22.5157 5.13858C22.58 5.21815 22.6819 5.26466 22.7905 5.26466L28.6345 5.30872L28.6211 6.2953L26.0556 6.29163C25.9618 6.29163 25.8719 6.32591 25.8063 6.38588C25.7419 6.44709 25.7057 6.53032 25.7071 6.61601L25.7392 8.05304C25.7433 8.22441 25.8974 8.36273 26.0864 8.36396L28.5916 8.37497L28.5769 9.39706L25.1348 9.39094C24.4847 8.64304 23.4808 8.17545 22.3857 8.17545C22.2516 8.17545 22.1162 8.18157 21.9795 8.19626C21.0198 8.29663 20.1954 8.74219 19.6378 9.38113L9.72822 9.36277L9.72688 9.36399C9.07679 8.67852 8.11839 8.25621 7.07688 8.25621C6.94285 8.25621 6.80746 8.26355 6.67074 8.27702C5.76731 8.37249 4.98316 8.77397 4.42823 9.35419L0.75146 9.34684L0.700524 5.58152L3.10654 5.56928C3.21109 5.56805 3.31162 5.52399 3.3773 5.44932L7.49638 0.713521L18.796 0.636548ZM0.759379 9.98228L3.9549 9.9884C3.73507 10.3752 3.60105 10.8049 3.56886 11.2553H0.776811L0.759379 9.98228ZM10.1972 9.99941L19.2047 10.0153C19.0077 10.3972 18.891 10.8171 18.8723 11.2553H10.5751C10.5711 11.2014 10.5657 11.1488 10.559 11.0949C10.5094 10.702 10.3835 10.3324 10.1972 9.99941ZM28.5756 9.50857L28.5742 9.53182V9.60282L28.5729 9.63097L28.5716 9.77419L28.5501 11.2553H25.8934C25.8934 11.3116 25.8934 11.3679 25.8921 11.4242C25.8934 11.2884 25.8854 11.1513 25.868 11.0142C25.8237 10.6629 25.7178 10.3311 25.5637 10.0276L28.5675 10.0325L28.5756 9.50857ZM22.4203 10.2222C23.0811 10.2222 23.6508 10.6751 23.7285 11.2883C23.8116 11.9493 23.2929 12.5466 22.5691 12.6225C22.5181 12.6274 22.4672 12.6299 22.4176 12.6299C21.7568 12.6299 21.1871 12.1782 21.1094 11.5637C21.0263 10.904 21.545 10.3066 22.2675 10.2307C22.3198 10.2246 22.3707 10.2222 22.4203 10.2222ZM7.11543 10.2332C7.77626 10.2332 8.34591 10.6861 8.42367 11.2993C8.50677 11.9603 7.98805 12.5564 7.26422 12.6323C7.21328 12.6372 7.16235 12.6409 7.11275 12.6409C6.45193 12.6409 5.88228 12.188 5.80452 11.5748C5.72142 10.9138 6.24014 10.3177 6.96397 10.2405C7.0149 10.2344 7.06584 10.2332 7.11543 10.2332ZM22.4213 9.58689C22.3436 9.58689 22.2658 9.59056 22.1881 9.59913C21.0836 9.71542 20.2901 10.6273 20.4174 11.6372C20.5354 12.5748 21.4066 13.2652 22.4159 13.2652C22.4923 13.2652 22.5701 13.2615 22.6492 13.2529C23.7537 13.1367 24.5458 12.2247 24.4198 11.2161C24.3005 10.2785 23.4306 9.58689 22.4213 9.58689ZM7.11646 9.59791C7.04006 9.59791 6.96232 9.60158 6.88323 9.61015C5.77873 9.72643 4.98524 10.6383 5.11255 11.647C5.2305 12.5846 6.10176 13.2762 7.11108 13.2762C7.18882 13.2762 7.26523 13.2725 7.34431 13.264C8.44882 13.1477 9.2423 12.2358 9.115 11.2271C8.99704 10.2895 8.12578 9.59791 7.11646 9.59791ZM22.3836 8.81084C23.7937 8.81084 25.0107 9.77662 25.1756 11.0864C25.3526 12.4965 24.2454 13.7707 22.7012 13.9335C22.5927 13.9445 22.4841 13.9507 22.3769 13.9507C20.9668 13.9507 19.7497 12.9849 19.5848 11.6739C19.4066 10.265 20.5137 8.98955 22.0579 8.82798C22.1678 8.81574 22.2763 8.81084 22.3836 8.81084ZM7.07494 8.89163C8.48505 8.89163 9.70211 9.8574 9.86699 11.1684C10.0453 12.5773 8.93811 13.8527 7.39396 14.0143C7.28405 14.0265 7.17548 14.0314 7.06824 14.0314C5.65813 14.0314 4.44107 13.0657 4.2762 11.7559C4.09926 10.3458 5.20642 9.07156 6.75056 8.90877C6.85914 8.89775 6.96771 8.89163 7.07494 8.89163ZM18.9655 6.03662e-05L7.32406 0.0796255C7.21817 0.0796255 7.11898 0.12369 7.05464 0.199583L2.93418 4.93413L0.345859 4.94882C0.253371 4.94882 0.164906 4.98309 0.0992247 5.04307C0.0348855 5.10427 -0.00130566 5.18506 3.60248e-05 5.26952L0.08448 11.5771C0.087161 11.7509 0.242648 11.8905 0.432976 11.8905H3.59363C3.82954 13.4928 5.33079 14.6667 7.06658 14.6667C7.20062 14.6667 7.336 14.6605 7.47272 14.6459C9.10265 14.4745 10.3412 13.3104 10.5503 11.8905L10.5516 11.8917L18.913 11.8905L18.9143 11.8917C19.1891 13.4512 20.6689 14.5859 22.3753 14.5859C22.5093 14.5859 22.6447 14.5785 22.7814 14.5651C24.3792 14.3962 25.6016 13.2737 25.8456 11.8905L25.8469 11.8917L28.8937 11.8905C29.084 11.8905 29.2381 11.7509 29.2408 11.5771L29.3333 4.99784C29.3346 4.91338 29.2998 4.83137 29.2341 4.77139C29.1698 4.71018 29.0813 4.67591 28.9888 4.67591L22.9663 4.63062L19.2453 0.126077C19.1796 0.0465119 19.0764 0 18.9678 0L18.9655 6.03662e-05Z" fill="#242424"/>
</svg>
