<svg width="32" height="32" viewBox="0 0 32 32" fill="none" xmlns="http://www.w3.org/2000/svg">
<path d="M17.2559 2.66797C17.688 2.66805 18.1113 2.75391 18.5127 2.91992C20.1877 3.61427 20.9871 5.54046 20.293 7.21582C19.9596 8.02114 19.3328 8.63727 18.5674 8.96973C18.8746 9.1985 19.1414 9.49825 19.3721 9.87012L19.3828 9.89062L19.3887 9.89941L21.1699 13.1611L24.3809 15.2197L24.9014 15.5498L24.8008 15.7119L24.5732 16.0723L23.0137 18.5625L22.8516 18.459L18.6172 15.7695L18.6162 15.7686L18.5156 15.7041L18.4707 15.6758L18.4531 15.6416L18.1826 16.9199L21.5029 20.6094L21.5039 20.6104L21.585 20.7012L21.6191 20.7412L21.6289 20.793L21.6514 20.9121L22.9062 27.7383L23.0195 28.3477L22.4092 28.4609L19.1367 29.0605L18.9492 29.0947L18.915 28.9092L18.8359 28.4893L17.7422 22.6426L16.043 20.7559L15.5215 22.7988L15.5205 22.8027L15.5029 22.8652L15.4971 22.8896L15.4834 22.9111L15.4492 22.9688L15.4482 22.9727L11.6123 29.1719L11.5098 29.335L8 27.1328L8.10059 26.9717L8.32617 26.6074L11.6475 21.2773L12.2373 18.9424L11.8896 18.8545L9.22754 18.1729L9.04395 18.126L9.08984 17.9414L9.19238 17.5264L10.4492 12.5303L10.4834 12.3887L10.498 12.3252L10.666 12.1943L14.7461 8.97656L14.7627 8.96289L14.7803 8.95117L14.8018 8.9375L14.8057 8.93457C15.0111 8.80834 15.1947 8.71344 15.3662 8.6416C14.1348 7.77617 13.6168 6.14598 14.2168 4.69824C14.7272 3.46541 15.9216 2.66797 17.2559 2.66797ZM16.7764 9.23633C16.4472 9.23633 16.2267 9.23613 16.0059 9.2832C15.7912 9.32906 15.565 9.42052 15.2422 9.61816L11.2217 12.79L10.0283 17.5371L11.9072 18.0176L12.9072 13.9688L12.9238 13.9043L12.9756 13.8643L14.2568 12.8701L14.6934 12.5303L12.4141 21.5674L12.4062 21.5957L12.3896 21.6211L9.11719 26.873L11.252 28.2139L14.7441 22.5674L15.6357 19.0889L18.4648 22.2305L18.5 22.2695L19.5977 28.1504L22.0752 27.6963L20.8633 21.1104L17.3701 17.2285L17.3037 17.1562L17.3252 17.0605L18.1445 13.207L19.0947 15.1094L22.7588 17.4375L23.7881 15.7998L20.5977 13.7568L20.5566 13.7305L20.5332 13.6885L18.6807 10.2959C18.471 9.95823 18.2407 9.7075 17.9668 9.53516C17.6948 9.36406 17.368 9.2623 16.9541 9.24023L16.7764 9.23633ZM17.2539 3.47852C16.2819 3.47864 15.359 4.05476 14.9639 5.00879C14.4409 6.27217 15.0422 7.72058 16.3057 8.24414C16.6151 8.37232 16.9362 8.43354 17.252 8.43359C18.2239 8.4335 19.1468 7.85721 19.542 6.90332C20.0649 5.63985 19.4638 4.19044 18.2002 3.66699C17.8907 3.53887 17.5695 3.47852 17.2539 3.47852Z" fill="#242424"/>
</svg>
