<svg width="259" height="342" viewBox="0 0 259 342" fill="none" xmlns="http://www.w3.org/2000/svg">
<path d="M130.557 341.977C52.2272 341.977 2.38324 303.982 0 230.377H47.4607C47.4607 275.503 82.5966 299.236 132.44 299.236H137.184C181.808 299.236 206.003 276.911 206.003 249.363C206.003 221.815 188.912 206.622 153.799 199.491L100.641 188.567C47.4607 177.643 16.6146 147.733 16.6146 94.9987C16.6146 42.2646 63.6214 0 135.3 0C206.979 0 255.87 40.3796 258.253 104.492H210.792C208.409 66.4968 178.04 42.7415 137.684 42.7415H132.94C91.6301 42.7415 64.1206 65.0661 64.1206 94.5218C64.1206 120.162 81.6886 135.378 109.697 141.079L162.855 151.526C220.303 162.926 253.532 193.313 253.532 247.478C253.532 305.89 204.165 342 130.602 342" fill="#43301F" style="fill:#43301F;fill:color(display-p3 0.2627 0.1882 0.1216);fill-opacity:1;"/>
</svg>
