<svg width="56" height="139" viewBox="0 0 56 139" fill="none" xmlns="http://www.w3.org/2000/svg">
<path d="M28.252 109H27.16V102.196H25.144V101.452C26.38 101.416 27.04 101.236 27.508 100.3H28.252V109Z" fill="#242424"/>
<path d="M27.624 60.144C29.232 60.144 30.384 60.948 30.384 62.424C30.384 64.44 28.284 66.216 25.848 67.98H30.624V69H24.36V68.016C27.432 65.748 29.232 64.116 29.232 62.568C29.232 61.656 28.644 61.056 27.6 61.056C26.664 61.056 25.764 61.572 25.728 63.012H24.6C24.564 61.284 25.764 60.144 27.624 60.144Z" fill="#242424"/>
<path d="M27.384 24.244C28.536 24.244 29.352 23.656 29.352 22.564C29.352 21.316 28.236 20.908 26.844 20.908H26.664V19.912H26.808C28.332 19.912 29.124 19.492 29.124 18.472C29.124 17.548 28.356 17.056 27.432 17.056C26.268 17.056 25.632 17.752 25.536 18.748H24.408C24.54 17.212 25.632 16.144 27.456 16.144C28.956 16.144 30.276 16.756 30.276 18.352C30.276 19.252 29.772 19.996 28.86 20.368C30.156 20.788 30.516 21.628 30.516 22.552C30.516 24.304 29.04 25.156 27.372 25.156C25.308 25.156 24.408 23.884 24.276 22.432H25.404C25.536 23.5 26.148 24.244 27.384 24.244Z" fill="#242424"/>
<path d="M28 120.5C35.6925 120.5 42.636 121.559 47.6387 123.256C50.1423 124.105 52.1321 125.106 53.4863 126.192C54.8453 127.282 55.5 128.403 55.5 129.5C55.5 130.597 54.8453 131.718 53.4863 132.808C52.1321 133.894 50.1423 134.895 47.6387 135.744C42.636 137.441 35.6925 138.5 28 138.5C20.3075 138.5 13.364 137.441 8.36133 135.744C5.85771 134.895 3.86788 133.894 2.51367 132.808C1.15473 131.718 0.5 130.597 0.5 129.5C0.5 128.403 1.15473 127.282 2.51367 126.192C3.86788 125.106 5.85771 124.105 8.36133 123.256C13.364 121.559 20.3075 120.5 28 120.5Z" stroke="black"/>
<path d="M28 81.5C35.7118 81.5 42.6809 82.0588 47.7109 82.957C50.2301 83.4069 52.2387 83.9376 53.6055 84.5146C54.2907 84.804 54.7864 85.0933 55.1025 85.3691C55.4214 85.6474 55.5 85.8588 55.5 86C55.5 86.1412 55.4214 86.3526 55.1025 86.6309C54.7864 86.9067 54.2907 87.196 53.6055 87.4854C52.2387 88.0624 50.2301 88.5931 47.7109 89.043C42.6809 89.9412 35.7118 90.5 28 90.5C20.2882 90.5 13.3191 89.9412 8.28906 89.043C5.76995 88.5931 3.76126 88.0624 2.39453 87.4854C1.7093 87.196 1.2136 86.9067 0.897461 86.6309C0.578594 86.3526 0.5 86.1412 0.5 86C0.5 85.8588 0.578594 85.6474 0.897461 85.3691C1.2136 85.0933 1.7093 84.804 2.39453 84.5146C3.76126 83.9376 5.76995 83.4069 8.28906 82.957C13.3191 82.0588 20.2882 81.5 28 81.5Z" stroke="black"/>
<path d="M28 42.5C35.722 42.5 42.7068 42.7797 47.7549 43.2305C50.2814 43.4561 52.3085 43.7227 53.6963 44.0156C54.3943 44.163 54.9054 44.3118 55.2314 44.4541C55.2657 44.4691 55.2953 44.4863 55.3232 44.5C55.2953 44.5137 55.2657 44.5309 55.2314 44.5459C54.9054 44.6882 54.3943 44.837 53.6963 44.9844C52.3085 45.2773 50.2814 45.5439 47.7549 45.7695C42.7068 46.2203 35.722 46.5 28 46.5C20.278 46.5 13.2932 46.2203 8.24512 45.7695C5.7186 45.5439 3.69151 45.2773 2.30371 44.9844C1.60575 44.837 1.09465 44.6882 0.768555 44.5459C0.734293 44.5309 0.70471 44.5137 0.676758 44.5C0.70471 44.4863 0.734293 44.4691 0.768555 44.4541C1.09465 44.3118 1.60575 44.163 2.30371 44.0156C3.69151 43.7227 5.7186 43.4561 8.24512 43.2305C13.2932 42.7797 20.278 42.5 28 42.5Z" stroke="black"/>
<rect width="56" height="1" rx="0.5" fill="black"/>
<rect y="129" width="128" height="1.00001" rx="0.500003" transform="rotate(-90 0 129)" fill="black"/>
<rect x="55" y="129" width="128" height="1.00001" rx="0.500003" transform="rotate(-90 55 129)" fill="black"/>
</svg>
