<svg width="345" height="123" viewBox="0 0 345 123" fill="none" xmlns="http://www.w3.org/2000/svg">
    <path d="M326.05 60.1473C326.05 62.0173 327.09 63.0473 328.41 63.0473C329.73 63.0473 330.77 62.0173 330.77 60.1473C330.77 58.2773 329.73 57.2573 328.41 57.2573C327.09 57.2573 326.05 58.2773 326.05 60.1473ZM331.81 60.1473C331.81 62.3373 330.5 63.9073 328.41 63.9073C326.32 63.9073 325.01 62.3373 325.01 60.1473C325.01 57.9573 326.32 56.3973 328.41 56.3973C330.5 56.3973 331.81 57.9573 331.81 60.1473ZM334.092 55.2473C334.852 55.2473 335.442 55.6373 335.442 56.3273C335.442 57.1373 334.702 57.8973 333.422 58.7673H335.532V59.3973H332.542V58.8073C333.872 57.7573 334.682 57.0473 334.682 56.3773C334.682 55.9873 334.432 55.7873 334.062 55.7873C333.692 55.7873 333.342 56.0273 333.352 56.6373H332.622C332.612 55.7973 333.182 55.2473 334.092 55.2473Z" fill="#242424"/>
    <path d="M321.745 9.64941C322.154 10.1931 322.737 10.9798 323.438 11.9492C324.841 13.8885 326.71 16.5586 328.578 19.4854C330.447 22.4141 332.311 25.5917 333.704 28.5449C335.106 31.5167 336 34.194 336 36.1475C336 44.1605 329.508 50.6562 321.5 50.6562C313.492 50.6562 307 44.1605 307 36.1475C307 34.194 307.894 31.5161 309.296 28.5439C310.689 25.5904 312.553 22.4134 314.422 19.4844C316.29 16.5571 318.159 13.8864 319.562 11.9473C320.263 10.978 320.846 10.1918 321.255 9.64844C321.345 9.52867 321.427 9.42073 321.499 9.3252C321.572 9.42116 321.655 9.529 321.745 9.64941Z" stroke="#242424"/>
    <path d="M321.5 28.7773L321.5 63.7773" stroke="#242424"/>
    <path d="M0.500171 101.944L0.500164 101.285L0.500168 122.5L282.928 122.5L329.129 122.5L329.129 98.0398L344.5 97.9288L344.449 0.500015L303.111 0.500013L167.997 0.605803L167.996 28.6813L14.0555 29.2014L0.499999 29.2014L0.500171 101.944Z" stroke="#242424"/>
</svg>
