<svg width="708" height="251" viewBox="0 0 708 251" fill="none" xmlns="http://www.w3.org/2000/svg">
    <path d="M676.36 110.144C676.36 112.388 677.608 113.624 679.192 113.624C680.776 113.624 682.024 112.388 682.024 110.144C682.024 107.9 680.776 106.676 679.192 106.676C677.608 106.676 676.36 107.9 676.36 110.144ZM683.272 110.144C683.272 112.772 681.7 114.656 679.192 114.656C676.684 114.656 675.112 112.772 675.112 110.144C675.112 107.516 676.684 105.644 679.192 105.644C681.7 105.644 683.272 107.516 683.272 110.144ZM686.011 104.264C686.923 104.264 687.631 104.732 687.631 105.56C687.631 106.532 686.743 107.444 685.207 108.488H687.739V109.244H684.151V108.536C685.747 107.276 686.719 106.424 686.719 105.62C686.719 105.152 686.419 104.912 685.975 104.912C685.531 104.912 685.111 105.2 685.123 105.932H684.247C684.235 104.924 684.919 104.264 686.011 104.264Z" fill="#242424"/>
    <path d="M669.433 10.5527C670.279 11.6765 671.488 13.301 672.938 15.3037C675.841 19.3102 679.711 24.8281 683.579 30.8779C687.448 36.9295 691.311 43.5047 694.204 49.626C697.106 55.7658 699 61.381 699 65.5371C699 82.3607 685.345 96 668.5 96C651.655 96 638 82.3607 638 65.5371C638 61.381 639.894 55.7646 642.796 49.624C645.689 43.5023 649.552 36.9269 653.421 30.875C657.289 24.8247 661.159 19.3069 664.062 15.3008C665.513 13.298 666.721 11.6731 667.567 10.5498C667.96 10.0281 668.275 9.61445 668.499 9.32129C668.723 9.61502 669.039 10.0297 669.433 10.5527Z" stroke="#242424"/>
    <path d="M668.5 50.5L668.5 114.5" stroke="#242424"/>
    <path d="M0.500352 208.378L0.500337 186.534L0.500345 250.5L580.955 250.5L675.909 250.5L675.909 200.377L707.5 200.149L707.394 0.500031L622.435 0.500027L348.843 0.716809L348.843 58.2485L28.3598 59.3144L0.499997 59.3144L0.500352 208.378Z" stroke="#242424"/>
</svg>
